<?xml version="1.0" encoding="UTF-8"?>
<svg version="1.1" xmlns="http://www.w3.org/2000/svg" width="204" height="126">
<path d="M0 0 C67.32 0 134.64 0 204 0 C204 41.58 204 83.16 204 126 C136.68 126 69.36 126 0 126 C0 84.42 0 42.84 0 0 Z " fill="#FCFBFD" transform="translate(0,0)"/>
<path d="M0 0 C0.99 0.33 1.98 0.66 3 1 C3.33 11.23 3.66 21.46 4 32 C5.98 31.34 7.96 30.68 10 30 C10 24.06 10 18.12 10 12 C11.32 12 12.64 12 14 12 C14.495 19.425 14.495 19.425 15 27 C16.98 26.34 18.96 25.68 21 25 C23.4140625 24.734375 23.4140625 24.734375 25.625 24.75 C26.35976562 24.74484375 27.09453125 24.7396875 27.8515625 24.734375 C30.32910633 25.04068951 31.89320259 25.66658392 34 27 C36.45391569 30.68087353 36.22802759 33.44355588 36.125 37.6875 C36.11597656 38.38939453 36.10695313 39.09128906 36.09765625 39.81445312 C36.07413704 41.54311525 36.03826713 43.27160145 36 45 C34.0625 45.5625 34.0625 45.5625 32 46 C29.59066341 43.59066341 30.53349615 37.38783368 30.37890625 34.125 C30.25386719 33.09375 30.12882812 32.0625 30 31 C24.85708727 28.42854364 19.14503392 30.31998892 14 32 C14 36.62 14 41.24 14 46 C12.68 46 11.36 46 10 46 C9.67 42.37 9.34 38.74 9 35 C7.02 35.66 5.04 36.32 3 37 C3.33 47.89 3.66 58.78 4 70 C2.02 70.495 2.02 70.495 0 71 C-1.88631543 69.11368457 -1.24265292 65.85799307 -1.31640625 63.33984375 C-1.33718735 62.67537735 -1.35796844 62.01091095 -1.37937927 61.3263092 C-1.44493658 59.19681457 -1.50378785 57.06719332 -1.5625 54.9375 C-1.60567939 53.49673153 -1.64929349 52.05597601 -1.69335938 50.61523438 C-1.80062393 47.0769596 -1.90187371 43.53854131 -2 40 C-3.32 40.66 -4.64 41.32 -6 42 C-6.33 47.94 -6.66 53.88 -7 60 C-8.32 60 -9.64 60 -11 60 C-11 54.72 -11 49.44 -11 44 C-12.52625 44.495 -14.0525 44.99 -15.625 45.5 C-23.14050701 47.701726 -23.14050701 47.701726 -27 47 C-29.8678845 45.29951319 -32.47945557 43.4207801 -33.6640625 40.1875 C-34.07471016 37.51351521 -34.09469719 34.9545639 -34.0625 32.25 C-34.05347656 31.26515625 -34.04445313 30.2803125 -34.03515625 29.265625 C-34.02355469 28.51796875 -34.01195313 27.7703125 -34 27 C-32.68 26.34 -31.36 25.68 -30 25 C-28.00383446 26.99616554 -28.59016573 30.81701963 -28.4375 33.5625 C-28.39431641 34.27341797 -28.35113281 34.98433594 -28.30664062 35.71679688 C-28.20028223 37.47761912 -28.09961154 39.2387832 -28 41 C-26.45874525 41.05482724 -24.91690094 41.09316134 -23.375 41.125 C-22.08722656 41.15980469 -22.08722656 41.15980469 -20.7734375 41.1953125 C-17.38811657 41.07248652 -17.38811657 41.07248652 -12 39 C-11.67 34.71 -11.34 30.42 -11 26 C-9.68 25.67 -8.36 25.34 -7 25 C-7 28.96 -7 32.92 -7 37 C-5.02 36.34 -3.04 35.68 -1 35 C-1.00523682 33.97527588 -1.01047363 32.95055176 -1.01586914 31.89477539 C-1.03391969 28.10604724 -1.0454322 24.31732291 -1.05493164 20.52856445 C-1.05997174 18.88630536 -1.06680378 17.24405077 -1.07543945 15.60180664 C-1.08751926 13.24624521 -1.09323139 10.89074291 -1.09765625 8.53515625 C-1.10281754 7.79660904 -1.10797882 7.05806183 -1.11329651 6.2971344 C-1.1134925 4.53101912 -1.06194719 2.76502854 -1 1 C-0.67 0.67 -0.34 0.34 0 0 Z " fill="#141397" transform="translate(106,16)"/>
<path d="M0 0 C3.4375 2 3.4375 2 6 4 C7.32 4 8.64 4 10 4 C10.66 3.34 11.32 2.68 12 2 C16.62372325 -1.08248216 21.59096969 -0.7984074 27 0 C31.56517619 2.26644532 33.34177334 4.1125951 35 9 C35.7396088 18.5207824 35.7396088 18.5207824 34 22 C32.68 21.67 31.36 21.34 30 21 C29.97421875 20.18015625 29.9484375 19.3603125 29.921875 18.515625 C29.86515625 17.43796875 29.8084375 16.3603125 29.75 15.25 C29.70359375 14.18265625 29.6571875 13.1153125 29.609375 12.015625 C28.88045499 8.40840546 27.92263652 7.18548841 25 5 C20.91560526 4.41649123 20.91560526 4.41649123 17 5 C14.08209475 7.2504197 14.08209475 7.2504197 12 10 C11.34 10.66 10.68 11.32 10 12 C7.625 11.9375 7.625 11.9375 5 11 C2.8125 8.5 2.8125 8.5 1 6 C-2.11549872 4.44225064 -5.6044388 4.43519378 -9 5 C-10.83320339 6.05613212 -10.83320339 6.05613212 -12 8 C-12.57947281 10.96243726 -12.57947281 10.96243726 -12.6875 14.1875 C-12.75324219 15.27417969 -12.81898438 16.36085938 -12.88671875 17.48046875 C-12.92410156 18.31191406 -12.96148437 19.14335938 -13 20 C-14.65 20.33 -16.3 20.66 -18 21 C-18.86110474 7.03096751 -18.86110474 7.03096751 -15.625 3.1875 C-10.7747548 -0.854371 -6.14923849 -0.66971904 0 0 Z " fill="#E80916" transform="translate(164,41)"/>
<path d="M0 0 C0.66 0 1.32 0 2 0 C3.21693876 2.43387753 3.31959896 4.41838846 3.5625 7.125 C3.64628906 8.03507812 3.73007812 8.94515625 3.81640625 9.8828125 C3.87699219 10.58148438 3.93757813 11.28015625 4 12 C4.78375 11.505 5.5675 11.01 6.375 10.5 C11.05661829 8.56277864 14.99678379 8.38087291 20 9 C23.78304235 10.60980525 25.86466836 12.51509078 28 16 C28.36328125 18.91015625 28.36328125 18.91015625 28.3125 22.0625 C28.30863281 23.10535156 28.30476563 24.14820313 28.30078125 25.22265625 C28 28 28 28 26 31 C25.01 30.67 24.02 30.34 23 30 C22.67 25.05 22.34 20.1 22 15 C19.958125 14.938125 17.91625 14.87625 15.8125 14.8125 C14.66394531 14.77769531 13.51539063 14.74289063 12.33203125 14.70703125 C8.6072146 15.03453564 6.80498558 15.52501272 4 18 C3.18071284 20.9477007 3.18071284 20.9477007 3.1875 24.1875 C3.13980469 25.27417969 3.09210937 26.36085938 3.04296875 27.48046875 C3.02878906 28.31191406 3.01460937 29.14335938 3 30 C1.68 30.33 0.36 30.66 -1 31 C-3.23139155 26.5372169 -2.18499699 20.40089668 -2.1875 15.5 C-2.19974609 14.23800781 -2.21199219 12.97601563 -2.22460938 11.67578125 C-2.22654297 10.47308594 -2.22847656 9.27039063 -2.23046875 8.03125 C-2.23457764 6.92330078 -2.23868652 5.81535156 -2.24291992 4.67382812 C-2 2 -2 2 0 0 Z " fill="#E90B18" transform="translate(41,32)"/>
<path d="M0 0 C3.31642326 1.36095123 6.1943583 3.12872972 8.93359375 5.4296875 C8.60359375 6.7496875 8.27359375 8.0696875 7.93359375 9.4296875 C4.46388556 9.00911681 2.66817273 8.25614298 -0.31640625 6.3046875 C-4.05492624 4.03692593 -6.91306971 4.27723725 -11.1484375 4.875 C-13.28395523 5.32535561 -13.28395523 5.32535561 -15.06640625 7.4296875 C-15.53127343 10.55165086 -15.53127343 10.55165086 -15.69140625 14.0546875 C-15.76617188 15.24320313 -15.8409375 16.43171875 -15.91796875 17.65625 C-15.96695312 18.57148437 -16.0159375 19.48671875 -16.06640625 20.4296875 C-17.38640625 20.4296875 -18.70640625 20.4296875 -20.06640625 20.4296875 C-21.92892306 18.56717069 -21.36854664 15.6793326 -21.44140625 13.1796875 C-21.40015418 6.90249706 -21.40015418 6.90249706 -18.81640625 3.2421875 C-12.74118994 -0.76193234 -7.20341903 -1.98808918 0 0 Z " fill="#E80F1C" transform="translate(27.06640625,41.5703125)"/>
<path d="M0 0 C0.99 0.33 1.98 0.66 3 1 C3.33 5.95 3.66 10.9 4 16 C10.19539258 16.16973678 15.14856425 16.035282 21 14 C21 15.65 21 17.3 21 19 C9.5 22.81818182 9.5 22.81818182 5 22 C2.13067466 20.29865886 -0.48719788 18.42241541 -1.65625 15.1796875 C-2.07005675 12.55577649 -2.16959896 10.03151389 -2.1875 7.375 C-2.20167969 6.41335937 -2.21585937 5.45171875 -2.23046875 4.4609375 C-2 2 -2 2 0 0 Z " fill="#E9131F" transform="translate(74,41)"/>
<path d="M0 0 C1.8515625 1.171875 1.8515625 1.171875 3.8515625 4.171875 C3.99377315 6.77432998 4.03959182 9.26305184 3.9765625 11.859375 C3.96753906 12.56126953 3.95851562 13.26316406 3.94921875 13.98632812 C3.92569954 15.71499025 3.88982963 17.44347645 3.8515625 19.171875 C1.9140625 19.734375 1.9140625 19.734375 -0.1484375 20.171875 C-2.55777409 17.76253841 -1.61494135 11.55970868 -1.76953125 8.296875 C-1.89457031 7.265625 -2.01960938 6.234375 -2.1484375 5.171875 C-7.29135023 2.60041864 -13.00340358 4.49186392 -18.1484375 6.171875 C-17.8184375 4.521875 -17.4884375 2.871875 -17.1484375 1.171875 C-11.71311194 -1.05800215 -5.62210659 -2.16706654 0 0 Z " fill="#E70A1A" transform="translate(138.1484375,41.828125)"/>
<path d="M0 0 C0.99 0 1.98 0 3 0 C3.33 10.56 3.66 21.12 4 32 C2.02 32.495 2.02 32.495 0 33 C-1.90849948 31.09150052 -1.13059633 27.68521226 -1.1328125 25.15625 C-1.13376923 24.47195923 -1.13472595 23.78766846 -1.13571167 23.0826416 C-1.1363933 21.63338123 -1.13454023 20.18411782 -1.13037109 18.73486328 C-1.12502252 16.50937072 -1.1303166 14.28407999 -1.13671875 12.05859375 C-1.13605797 10.65364539 -1.1347768 9.24869715 -1.1328125 7.84375 C-1.13168457 6.55662109 -1.13055664 5.26949219 -1.12939453 3.94335938 C-1 1 -1 1 0 0 Z " fill="#131594" transform="translate(106,54)"/>
<path d="M0 0 C0.99 0 1.98 0 3 0 C3 11.55 3 23.1 3 35 C1.68 35 0.36 35 -1 35 C-1.0246519 30.17619198 -1.04283693 25.35242033 -1.05493164 20.52856445 C-1.05997174 18.88630536 -1.06680378 17.24405077 -1.07543945 15.60180664 C-1.08751926 13.24624521 -1.09323139 10.89074291 -1.09765625 8.53515625 C-1.10281754 7.79660904 -1.10797882 7.05806183 -1.11329651 6.2971344 C-1.1134925 4.53101912 -1.06194719 2.76502854 -1 1 C-0.67 0.67 -0.34 0.34 0 0 Z " fill="#15159B" transform="translate(96,41)"/>
<path d="M0 0 C1.32 0 2.64 0 4 0 C4 11.22 4 22.44 4 34 C2.68 34 1.36 34 0 34 C0 22.78 0 11.56 0 0 Z " fill="#171698" transform="translate(116,28)"/>
<path d="M0 0 C10.79713931 -0.56606361 10.79713931 -0.56606361 15 3 C18.07129257 6.30238497 18.38432764 8.60366094 18.3125 13.0625 C18.30863281 14.10535156 18.30476563 15.14820313 18.30078125 16.22265625 C18 19 18 19 16 22 C15.01 21.67 14.02 21.34 13 21 C12.67 16.05 12.34 11.1 12 6 C8.7 5.67 5.4 5.34 2 5 C2 4.67 2 4.34 2 4 C4.31 4 6.62 4 9 4 C9 3.34 9 2.68 9 2 C6.03 2 3.06 2 0 2 C0 1.34 0 0.68 0 0 Z " fill="#E80E1A" transform="translate(51,41)"/>
<path d="M0 0 C1.3303125 0.37125 1.3303125 0.37125 2.6875 0.75 C3.91826923 7.15 3.91826923 7.15 2.75 10.1875 C2.399375 10.703125 2.04875 11.21875 1.6875 11.75 C-4.72068182 12.11272727 -4.72068182 12.11272727 -7.25 10.5625 C-8.74403143 8.01385815 -8.87960464 6.65641128 -8.3125 3.75 C-5.48965306 0.59505343 -4.28023189 -0.32303637 0 0 Z " fill="#D7D7EC" transform="translate(153.3125,92.25)"/>
<path d="M0 0 C2 6.875 2 6.875 2 8 C-0.01822917 7.96744792 -2.03645833 7.93489583 -4.0546875 7.90234375 C-6.08185404 7.87350758 -6.08185404 7.87350758 -8 9 C-8.66 8.67 -9.32 8.34 -10 8 C-10 5.69 -10 3.38 -10 1 C-6.52674819 -0.1577506 -3.63932552 -0.06866652 0 0 Z " fill="#6768B6" transform="translate(71,96)"/>
<path d="M0 0 C0.00390625 2.26171875 0.00390625 2.26171875 -1 5 C-3.50910998 6.69467502 -6.24777329 7.72362622 -9.0625 8.8125 C-9.82111328 9.12380859 -10.57972656 9.43511719 -11.36132812 9.75585938 C-13.233847 10.52135451 -15.11608366 11.26300003 -17 12 C-17 10.35 -17 8.7 -17 7 C-14.54379149 5.82866942 -12.08525083 4.66278278 -9.625 3.5 C-8.92632812 3.16613281 -8.22765625 2.83226562 -7.5078125 2.48828125 C-2.2265625 0 -2.2265625 0 0 0 Z " fill="#E7111E" transform="translate(116,46)"/>
<path d="M0 0 C2.64 0 5.28 0 8 0 C9.125 3.75 9.125 3.75 8 6 C8.89363605 8.60931266 8.89363605 8.60931266 10 11 C8.0625 10.6875 8.0625 10.6875 6 10 C5.67 9.01 5.34 8.02 5 7 C4.34 6.67 3.68 6.34 3 6 C3.33 7.65 3.66 9.3 4 11 C2.68 10.67 1.36 10.34 0 10 C0 6.7 0 3.4 0 0 Z " fill="#3E42A4" transform="translate(7,93)"/>
<path d="M0 0 C0.33 0 0.66 0 1 0 C1.33 6.6 1.66 13.2 2 20 C2.33 20 2.66 20 3 20 C3 23.63 3 27.26 3 31 C1.68 31.33 0.36 31.66 -1 32 C-2.48575156 29.02849688 -1.89574712 26.54045971 -1.66015625 23.2421875 C-1.59144569 22.24761032 -1.59144569 22.24761032 -1.52134705 21.23294067 C-1.37368321 19.11321634 -1.21818571 16.9941488 -1.0625 14.875 C-0.9610725 13.43883843 -0.86015465 12.00264078 -0.75976562 10.56640625 C-0.51242495 7.04383273 -0.25805525 3.52180664 0 0 Z " fill="#2926A4" transform="translate(107,55)"/>
<path d="M0 0 C0 4.29 0 8.58 0 13 C-1.65 13.33 -3.3 13.66 -5 14 C-5 10.04 -5 6.08 -5 2 C-1 0 -1 0 0 0 Z " fill="#E9252A" transform="translate(151,48)"/>
<path d="M0 0 C0.99 0 1.98 0 3 0 C4.32229189 2.64458379 4.09677194 4.67761301 4.0625 7.625 C4.05347656 8.62789062 4.04445312 9.63078125 4.03515625 10.6640625 C4.02355469 11.43492188 4.01195312 12.20578125 4 13 C2.0625 13.5625 2.0625 13.5625 0 14 C-0.33 13.67 -0.66 13.34 -1 13 C-0.90982004 10.80949979 -0.75333792 8.621534 -0.5625 6.4375 C-0.46066406 5.23996094 -0.35882813 4.04242188 -0.25390625 2.80859375 C-0.17011719 1.88175781 -0.08632812 0.95492187 0 0 Z " fill="#E80512" transform="translate(138,48)"/>
<path d="M0 0 C0.66 0 1.32 0 2 0 C2.33 0.99 2.66 1.98 3 3 C5.00016466 4.20882096 5.00016466 4.20882096 7 5 C7 6.98 7 8.96 7 11 C4.36 11 1.72 11 -1 11 C-0.67 7.37 -0.34 3.74 0 0 Z " fill="#5255AC" transform="translate(21,93)"/>
<path d="M0 0 C1.32 0.33 2.64 0.66 4 1 C3.67 3.97 3.34 6.94 3 10 C4.65 9.34 6.3 8.68 8 8 C8.20086443 4.28400809 8.1519437 3.22791555 6 0 C8.475 0.99 8.475 0.99 11 2 C11.125 5.375 11.125 5.375 11 9 C9 11 9 11 6.8359375 11.1953125 C4.55729167 11.13020833 2.27864583 11.06510417 0 11 C0 7.37 0 3.74 0 0 Z " fill="#161A90" transform="translate(83,93)"/>
<path d="M0 0 C0.33 0 0.66 0 1 0 C1.04898438 0.85464844 1.09796875 1.70929687 1.1484375 2.58984375 C1.22320312 3.69457031 1.29796875 4.79929687 1.375 5.9375 C1.44460937 7.03964844 1.51421875 8.14179687 1.5859375 9.27734375 C1.72257812 10.17582031 1.85921875 11.07429688 2 12 C2.66 12.33 3.32 12.66 4 13 C4 16.3 4 19.6 4 23 C2.68 23 1.36 23 0 23 C0 15.41 0 7.82 0 0 Z " fill="#E70212" transform="translate(39,38)"/>
<path d="M0 0 C0.66 0 1.32 0 2 0 C4.13570963 2.21785231 4.94561394 3.54315707 5.3125 6.625 C5 9 5 9 3 11 C1.68 11 0.36 11 -1 11 C-1.0270043 9.54176788 -1.04639787 8.08339325 -1.0625 6.625 C-1.07410156 5.81289062 -1.08570312 5.00078125 -1.09765625 4.1640625 C-1 2 -1 2 0 0 Z " fill="#E6E5F6" transform="translate(87,92)"/>
<path d="M0 0 C0.99 0.33 1.98 0.66 3 1 C2.85950482 2.47968324 2.71245174 3.95874516 2.5625 5.4375 C2.48128906 6.26121094 2.40007812 7.08492187 2.31640625 7.93359375 C2 10 2 10 1 11 C0.92680379 13.69654854 0.90757463 16.36691458 0.9375 19.0625 C0.94201172 19.82111328 0.94652344 20.57972656 0.95117188 21.36132812 C0.9629932 23.24091871 0.98092922 25.12046899 1 27 C0.34 27 -0.32 27 -1 27 C-1.02886537 22.68751391 -1.04675255 18.37505238 -1.0625 14.0625 C-1.07087891 12.83080078 -1.07925781 11.59910156 -1.08789062 10.33007812 C-1.09111328 9.16025391 -1.09433594 7.99042969 -1.09765625 6.78515625 C-1.10289307 5.70113525 -1.10812988 4.61711426 -1.11352539 3.50024414 C-1 1 -1 1 0 0 Z " fill="#302798" transform="translate(96,41)"/>
<path d="M0 0 C2.625 0.9375 2.625 0.9375 5 2 C4.67 3.65 4.34 5.3 4 7 C1.625 7.625 1.625 7.625 -1 8 C-1.66 7.34 -2.32 6.68 -3 6 C-2.75 3.4375 -2.75 3.4375 -2 1 C-1.34 0.67 -0.68 0.34 0 0 Z " fill="#6F71B9" transform="translate(172,96)"/>
<path d="M0 0 C3.375 0.3125 3.375 0.3125 7 1 C9 4 9 4 8.625 6.1875 C8.41875 6.785625 8.2125 7.38375 8 8 C7.34 7.67 6.68 7.34 6 7 C5.67 9.31 5.34 11.62 5 14 C4.67 14 4.34 14 4 14 C3.96261719 13.38511719 3.92523438 12.77023438 3.88671875 12.13671875 C3.82097656 11.32847656 3.75523437 10.52023438 3.6875 9.6875 C3.62949219 8.88699219 3.57148438 8.08648437 3.51171875 7.26171875 C2.9123443 4.61257517 1.96373189 3.79526159 0 2 C0 1.34 0 0.68 0 0 Z " fill="#E9212E" transform="translate(133,42)"/>
<path d="M0 0 C0.33 2.31 0.66 4.62 1 7 C-1.64 7 -4.28 7 -7 7 C-7 4.69 -7 2.38 -7 0 C-3.98968256 -0.93423645 -3.13349732 -1.04449911 0 0 Z " fill="#686BB3" transform="translate(115,97)"/>
<path d="M0 0 C0.66 0.33 1.32 0.66 2 1 C1.67 1.33 1.34 1.66 1 2 C0.95907063 4.33297433 0.95758277 6.66705225 1 9 C2.65 9.33 4.3 9.66 6 10 C5.67 8.68 5.34 7.36 5 6 C5.99 6 6.98 6 8 6 C7.67 7.65 7.34 9.3 7 11 C0.59181818 11.36272727 0.59181818 11.36272727 -1.9375 9.8125 C-3.38718434 7.33950907 -3.42317323 5.82115488 -3 3 C-1.5 1.1875 -1.5 1.1875 0 0 Z " fill="#1C2091" transform="translate(148,93)"/>
<path d="M0 0 C3.3 0 6.6 0 10 0 C10.33 1.65 10.66 3.3 11 5 C11.66 5 12.32 5 13 5 C12.67 5.99 12.34 6.98 12 8 C12 7.34 12 6.68 12 6 C8.7 5.67 5.4 5.34 2 5 C2 4.67 2 4.34 2 4 C4.31 4 6.62 4 9 4 C9 3.34 9 2.68 9 2 C6.03 2 3.06 2 0 2 C0 1.34 0 0.68 0 0 Z " fill="#E92530" transform="translate(51,41)"/>
<path d="M0 0 C0.33 0 0.66 0 1 0 C1 4.95 1 9.9 1 15 C-0.32 15 -1.64 15 -3 15 C-3 12.36 -3 9.72 -3 7 C-2.34 7 -1.68 7 -1 7 C-0.67 4.69 -0.34 2.38 0 0 Z " fill="#0C0F91" transform="translate(98,61)"/>
<path d="M0 0 C0.598125 0.350625 1.19625 0.70125 1.8125 1.0625 C1.4375 3.5 1.4375 3.5 0.8125 6.0625 C-0.1775 6.5575 -0.1775 6.5575 -1.1875 7.0625 C-1.1875 5.0825 -1.1875 3.1025 -1.1875 1.0625 C-2.1775 1.5575 -2.1775 1.5575 -3.1875 2.0625 C-3.1875 5.0325 -3.1875 8.0025 -3.1875 11.0625 C-4.1775 10.7325 -5.1675 10.4025 -6.1875 10.0625 C-5.8575 6.7625 -5.5275 3.4625 -5.1875 0.0625 C-2.1875 -0.9375 -2.1875 -0.9375 0 0 Z " fill="#2D2E92" transform="translate(197.1875,96.9375)"/>
<path d="M0 0 C0.33 2.31 0.66 4.62 1 7 C-1.31 7 -3.62 7 -6 7 C-5.37162381 3.35541809 -4.14650034 0 0 0 Z " fill="#4C4DA6" transform="translate(104,97)"/>
<path d="M0 0 C2.125 0.375 2.125 0.375 4 1 C4 1.99 4 2.98 4 4 C2.68 4 1.36 4 0 4 C0.99 5.32 1.98 6.64 3 8 C1.35 7.67 -0.3 7.34 -2 7 C-2.125 4.625 -2.125 4.625 -2 2 C-1.34 1.34 -0.68 0.68 0 0 Z " fill="#5051A7" transform="translate(131,96)"/>
<path d="M0 0 C0.99 0.33 1.98 0.66 3 1 C3.33 3.31 3.66 5.62 4 8 C2.35 8 0.7 8 -1 8 C-1.125 2.25 -1.125 2.25 0 0 Z " fill="#8A8BC4" transform="translate(69,96)"/>
<path d="M0 0 C-3.17320782 3.53586014 -5.16743695 5.58578031 -10 6 C-8.54794521 1.40182648 -8.54794521 1.40182648 -6.125 -0.375 C-3.6665651 -1.09806909 -2.38500154 -0.85178626 0 0 Z " fill="#E90C1A" transform="translate(156,44)"/>
<path d="M0 0 C0.33 0 0.66 0 1 0 C1 3.63 1 7.26 1 11 C0.01 11.33 -0.98 11.66 -2 12 C-2.17835515 7.45194365 -1.99785435 4.1205746 0 0 Z " fill="#ED0A16" transform="translate(148,50)"/>
<path d="M0 0 C1.98 0 3.96 0 6 0 C6 0.66 6 1.32 6 2 C5.34 2 4.68 2 4 2 C3.67 3.65 3.34 5.3 3 7 C2.01 7 1.02 7 0 7 C0 4.69 0 2.38 0 0 Z " fill="#4D4EA8" transform="translate(161,97)"/>
<path d="M0 0 C0.33 0.66 0.66 1.32 1 2 C1.66 2.33 2.32 2.66 3 3 C2.34 3 1.68 3 1 3 C1 4.65 1 6.3 1 8 C1.66 8.33 2.32 8.66 3 9 C1.68 9 0.36 9 -1 9 C-1.625 5.625 -1.625 5.625 -2 2 C-1.34 1.34 -0.68 0.68 0 0 Z " fill="#2F3197" transform="translate(43,95)"/>
<path d="M0 0 C0.99 0 1.98 0 3 0 C5 3 5 3 4.625 5.1875 C4.41875 5.785625 4.2125 6.38375 4 7 C2 5.1875 2 5.1875 0 3 C0 2.01 0 1.02 0 0 Z " fill="#E91422" transform="translate(137,43)"/>
<path d="M0 0 C0.66 0 1.32 0 2 0 C2 1.98 2 3.96 2 6 C1.34 6 0.68 6 0 6 C-0.33 6.99 -0.66 7.98 -1 9 C-1.09765625 2.84765625 -1.09765625 2.84765625 -1 1 C-0.67 0.67 -0.34 0.34 0 0 Z " fill="#BDBCE3" transform="translate(194,98)"/>
<path d="M0 0 C0.99 0.33 1.98 0.66 3 1 C2.67 3.97 2.34 6.94 2 10 C-0.13262124 6.80106814 -0.59021548 4.77001757 -1 1 C-0.67 0.67 -0.34 0.34 0 0 Z " fill="#2925A3" transform="translate(96,41)"/>
<path d="M0 0 C0.66 0 1.32 0 2 0 C2 0.66 2 1.32 2 2 C3.32 2.33 4.64 2.66 6 3 C3.69 3.66 1.38 4.32 -1 5 C-0.67 3.35 -0.34 1.7 0 0 Z " fill="#E91621" transform="translate(121,43)"/>
</svg>
