<svg width="24" height="24" viewBox="0 0 24 24" fill="none" xmlns="http://www.w3.org/2000/svg">
<path fill-rule="evenodd" clip-rule="evenodd" d="M10.781 13.0239C12.5324 14.425 14.6768 16.5583 16.1182 19.4411L13.8821 20.5591C12.6567 18.1083 10.8012 16.2417 9.21926 14.9761C8.43272 14.3469 7.726 13.876 7.22002 13.5646C6.96739 13.4092 6.76583 13.2941 6.63067 13.2196C6.56313 13.1823 6.51226 13.1552 6.48001 13.1383L6.44586 13.1206L6.44113 13.1181L6.44054 13.1178C6.44057 13.1178 6.4406 13.1179 6.44113 13.1169L6.44111 10.8833C6.44057 10.8823 6.44054 10.8823 6.44051 10.8823L6.44111 10.8821L6.44583 10.8796L6.47998 10.8619C6.51224 10.845 6.5631 10.8179 6.63065 10.7806C6.76581 10.706 6.96736 10.591 7.22 10.4355C7.72598 10.1241 8.4327 9.65323 9.21925 9.02398C10.8012 7.7584 12.6567 5.89169 13.8821 3.44092L16.1182 4.55893C14.6768 7.44165 12.5324 9.57502 10.781 10.9761C10.285 11.373 9.81655 11.7142 9.39881 12.0001C9.81655 12.2859 10.285 12.6271 10.781 13.0239Z" fill="black"/>
</svg>
