<svg width="18" height="14" viewBox="0 0 18 14" fill="none" xmlns="http://www.w3.org/2000/svg">
<path d="M10.5507 0.75137L16.4393 6.6392L0.687577 6.6392C0.487986 6.6392 0.326172 6.80102 0.326172 7.00061C0.326172 7.2002 0.487986 7.36201 0.687577 7.36201L16.4393 7.36201L10.5507 13.2498C10.4121 13.3934 10.4161 13.6222 10.5596 13.7609C10.6997 13.8961 10.9217 13.8961 11.0617 13.7609L17.5668 7.25576C17.7081 7.11482 17.7084 6.88599 17.5675 6.74467C17.5673 6.74447 17.567 6.74423 17.5668 6.74403L11.0617 0.238924C10.9182 0.10025 10.6894 0.104249 10.5507 0.247802C10.4154 0.387865 10.4154 0.609885 10.5507 0.749948L10.5507 0.75137Z" fill="url(#paint0_linear_0_4023)"/>
<defs>
<linearGradient id="paint0_linear_0_4023" x1="8.88394" y1="14.4342" x2="6.04019" y2="0.414762" gradientUnits="userSpaceOnUse">
<stop stop-color="#009EE2"/>
<stop offset="1" stop-color="#273992"/>
</linearGradient>
</defs>
</svg>
