<svg width="18" height="14" viewBox="0 0 27 22" fill="none" xmlns="http://www.w3.org/2000/svg">
<path d="M11.2709 1.66112L2.54966 10.3813L25.8788 10.3813C26.1744 10.3813 26.4141 10.621 26.4141 10.9166C26.4141 11.2122 26.1744 11.4518 25.8788 11.4518L2.54966 11.4518L11.2709 20.172C11.4763 20.3846 11.4704 20.7235 11.2578 20.9289C11.0504 21.1292 10.7215 21.1292 10.5141 20.9289L0.879746 11.2945C0.670449 11.0857 0.670048 10.7468 0.878794 10.5375C0.879096 10.5372 0.879445 10.5369 0.879746 10.5366L10.5141 0.902162C10.7268 0.696779 11.0656 0.702701 11.271 0.915309C11.4714 1.12275 11.4714 1.45157 11.271 1.65901L11.2709 1.66112Z" fill="url(#paint0_linear_0_2746)"/>
<defs>
<linearGradient id="paint0_linear_0_2746" x1="13.7396" y1="21.9261" x2="17.9513" y2="1.16259" gradientUnits="userSpaceOnUse">
<stop stop-color="#009EE2"/>
<stop offset="1" stop-color="#273992"/>
</linearGradient>
</defs>
</svg>
