<svg width="103" height="25" viewBox="0 0 103 25" fill="none" xmlns="http://www.w3.org/2000/svg">
<path d="M17.8101 2.01763C17.4067 2.24822 16.888 2.72862 16.4845 3.22824C16.1387 3.6702 15.5623 4.43884 15.4471 4.59257C15.4471 4.59257 14.3712 6.05298 13.084 7.80163C16.1387 7.35967 18.0599 5.91847 18.9629 4.16982C19.4816 3.15137 19.52 2.22901 19.1358 1.92155C19.0973 1.90233 19.0589 1.8639 19.0205 1.84469C18.9244 1.78704 18.79 1.76782 18.6555 1.76782C18.4057 1.76782 18.0983 1.8639 17.8101 2.01763Z" fill="white"/>
<path d="M19.6158 5.14997C17.9828 8.01315 14.8512 9.3967 11.6812 9.68494C11.1241 10.4344 10.5669 11.1838 10.1058 11.8179C9.77924 12.2599 9.35658 12.8171 8.95312 13.336C10.2211 14.143 11.5275 15.0078 12.8724 15.7956C13.564 14.854 14.2364 13.9317 14.8512 13.1054H13.7561C12.5842 13.1054 11.9694 13.3552 11.6236 13.6242H11.5275C11.5275 13.6242 11.8734 12.8748 12.4881 12.3367C13.1413 11.7795 13.8906 11.4912 14.7359 11.4912H16.0616C16.7532 10.5497 17.2143 9.93474 17.2143 9.93474C18.1557 8.66649 19.1931 7.74412 20.2114 7.24451C21.4794 6.61038 22.7282 6.55274 23.6695 6.86019C22.8626 5.26527 21.7291 3.84329 20.3459 2.72876C20.3266 3.42053 20.1345 4.24682 19.6158 5.14997Z" fill="white"/>
<path d="M21.2859 13.1244H17.9622C17.04 14.3735 15.9834 15.8147 15.0996 17.0061C16.7903 17.8323 18.4809 18.3896 20.0947 18.3896C23.2263 18.3896 24.9554 15.8339 24.9554 12.4903C24.9554 11.9907 24.917 11.4911 24.8593 10.9915C24.5519 12.1444 23.3224 13.1244 21.2859 13.1244Z" fill="white"/>
<path d="M22.5933 7.97447C21.8248 8.12819 21.1908 8.76232 20.3647 9.87685C20.3647 9.87685 19.8844 10.5302 19.1543 11.5102H21.7863C23.746 11.5102 24.8026 10.3957 24.4952 9.12742C24.4952 9.10821 24.4952 9.08899 24.476 9.08899C24.476 9.06978 24.476 9.06978 24.4568 9.05056C24.4568 9.03134 24.4376 9.01213 24.4376 8.99291C24.2071 8.28192 23.5923 7.93604 22.9199 7.93604C22.843 7.93604 22.7277 7.95525 22.5933 7.97447Z" fill="white"/>
<path d="M6.43746 3.9777C6.16849 5.93773 7.4557 7.55187 9.91484 7.87854C11.4326 5.82244 12.6429 4.18908 12.6429 4.18908C14.0262 2.34435 14.7178 1.65257 15.8129 1.03766C16.0819 0.883934 16.3509 0.787854 16.6198 0.71099C15.3326 0.249807 13.9302 0 12.47 0C9.35769 0 6.76407 1.53728 6.43746 3.9777Z" fill="white"/>
<path d="M0 11.6256C0.576361 11.0491 1.49854 10.6264 2.99708 10.684C4.11138 10.7224 5.39858 11.2797 6.82027 12.0676C7.39663 11.2797 8.01142 10.4534 8.6262 9.62713C6.01337 9.12752 4.66852 7.32122 4.66852 5.45727C4.66852 3.82391 5.37937 2.44036 6.53209 1.49878C2.86259 3.47802 0.307393 7.24435 0 11.6256Z" fill="white"/>
<path d="M2.72664 16.7179C1.82368 16.7179 1.07441 16.4681 0.498047 16.0838C0.843863 17.2368 1.36259 18.3321 1.99659 19.3121C3.03404 20.8494 4.34045 21.4258 6.43457 21.1953C8.43262 20.9839 10.1041 19.5811 11.641 17.4866C11.6602 17.4674 11.6795 17.4481 11.6987 17.4289C10.8149 16.7948 9.95037 16.1222 9.08583 15.4881C8.66316 15.1807 8.25971 14.8732 7.87547 14.585C6.51141 15.8532 4.99366 16.7179 2.72664 16.7179Z" fill="white"/>
<path d="M4.80273 22.3867C6.91606 24.0201 9.56732 25.0001 12.4683 25.0001C17.0408 25.0001 21.0369 22.5405 23.2079 18.8894C22.3049 19.831 20.9985 20.5612 19.1349 20.6189C17.3098 20.6765 15.5038 19.9079 13.7555 18.8318C11.5269 21.5412 8.06878 23.3091 4.80273 22.3867Z" fill="white"/>
<path d="M1.97752 11.7411C1.03613 11.7988 -0.0973786 12.3945 0.0178937 13.7204V13.7396C0.152378 15.0655 1.36274 15.5651 2.64994 15.4306C3.93715 15.3153 4.84011 14.5659 5.9352 13.1823C4.64799 12.3368 3.41842 11.7219 2.22728 11.7219C2.15043 11.7219 2.05437 11.7219 1.97752 11.7411Z" fill="white"/>
<path d="M35.5993 4.90006C35.0805 5.38046 34.7347 5.97615 34.6002 6.70636L33.9854 9.72326C33.851 10.3574 33.6973 10.7994 33.5244 11.0107C33.3515 11.2413 33.0633 11.3374 32.679 11.3374H32.3909L31.6992 12.0484L36.8673 12.2021C37.2323 12.2021 37.5397 12.1445 37.7702 12.0292C38.0008 11.9139 38.3274 11.6641 38.7885 11.2605L38.8653 10.8954C38.2697 11.2605 37.5973 11.4335 36.8096 11.4335L33.4859 11.3951C33.9855 11.126 34.3505 10.7994 34.581 10.4343C34.8116 10.0691 35.0037 9.56954 35.1382 8.89698L35.6953 6.12988C35.9067 5.09222 36.3101 4.57339 36.9249 4.57339C37.5397 4.57339 37.8471 4.88084 37.8471 5.47654C37.8471 5.53418 37.8471 5.59183 37.8279 5.68791H38.1352L38.385 4.47731C38.0008 4.26593 37.6549 4.15063 37.3476 4.15063C36.7136 4.18907 36.118 4.41966 35.5993 4.90006Z" fill="white"/>
<path d="M41.1129 7.97455C41.4779 7.45572 41.8429 7.20591 42.2272 7.20591C42.5922 7.20591 42.7651 7.45572 42.7651 7.95534C42.7651 8.45495 42.5538 8.85849 42.1503 9.18516C41.7468 9.49261 41.1897 9.68477 40.4596 9.74242C40.5365 9.06986 40.767 8.47417 41.1129 7.97455ZM40.4789 7.89769C39.7872 8.70476 39.4414 9.55026 39.4414 10.4534C39.4414 10.953 39.5759 11.3758 39.8641 11.7024C40.1523 12.0291 40.5173 12.1828 40.9784 12.1828C41.7084 12.1828 42.573 11.8177 43.5912 11.1068L43.6681 10.7416C42.8035 11.3373 42.0927 11.6256 41.4971 11.6256C40.8055 11.6256 40.4596 11.1644 40.4596 10.2228V10.0114C41.3434 10.0114 42.0927 9.78085 42.7267 9.33888C43.3607 8.89692 43.6681 8.35887 43.6681 7.74396C43.6681 7.4365 43.572 7.1867 43.3991 6.99454C43.2262 6.80238 42.9956 6.7063 42.7075 6.7063C41.9198 6.7063 41.1897 7.10983 40.4789 7.89769Z" fill="white"/>
<path d="M45.3213 10.7224C45.3213 10.0306 45.5326 9.24277 45.9361 8.35884C46.2819 7.60942 46.7622 7.24431 47.3386 7.24431C47.742 7.24431 48.1262 7.34039 48.5489 7.51334L48.3376 8.60865C47.9533 9.35807 47.4923 10.0306 46.9735 10.6071C46.4548 11.1836 46.0513 11.4718 45.7824 11.4718C45.475 11.4718 45.3213 11.222 45.3213 10.7224ZM45.4366 8.16668C44.6873 9.06983 44.3223 9.9922 44.3223 10.9146C44.3223 11.7601 44.6681 12.1828 45.3405 12.1828C45.7824 12.1828 46.2627 11.933 46.7814 11.4142C47.3001 10.8953 47.7228 10.242 48.0878 9.43493H48.1839L47.9533 10.6263C47.8765 11.0106 47.8381 11.2797 47.8381 11.4526C47.8381 11.933 48.0686 12.1828 48.5489 12.1828C49.1061 12.1828 49.7401 11.7985 50.4509 11.0491L50.547 10.6071C49.913 11.3181 49.4327 11.664 49.1061 11.664C48.9139 11.664 48.8179 11.5679 48.8179 11.3565C48.8179 11.2412 48.8563 11.0106 48.9332 10.6263L49.3942 8.24355L49.7401 6.82156C49.2405 6.78313 48.7602 6.76392 48.2992 6.76392C47.1464 6.76392 46.205 7.2251 45.4366 8.16668Z" fill="white"/>
<path d="M51.9502 10.7225C51.9502 10.0307 52.1615 9.24286 52.565 8.35892C52.9108 7.6095 53.3911 7.2444 53.9675 7.2444C54.3709 7.2444 54.7744 7.34048 55.1778 7.51342L54.9665 8.60873C54.5822 9.35815 54.1212 10.0307 53.6024 10.6072C53.0837 11.1837 52.6803 11.4911 52.4113 11.4911C52.0847 11.4719 51.9502 11.2221 51.9502 10.7225ZM56.7916 4.362C56.4266 4.65024 56.1192 4.97691 55.9271 5.30358C55.7158 5.64947 55.5236 6.12987 55.3315 6.764C54.6591 6.764 54.1404 6.82164 53.7946 6.91772C53.4487 7.0138 53.0837 7.20596 52.7379 7.4942C52.2 7.91695 51.7773 8.455 51.4507 9.08913C51.1241 9.72325 50.9512 10.3382 50.9512 10.9146C50.9512 11.7601 51.297 12.2021 51.9694 12.2021C52.4113 12.2021 52.8916 11.9523 53.3911 11.4335C53.9098 10.9146 54.3325 10.2613 54.7167 9.45423H54.8128L54.5822 10.6456C54.5054 11.0299 54.467 11.3182 54.467 11.4719C54.467 11.9523 54.6975 12.2021 55.1586 12.2021C55.7158 12.2021 56.3498 11.8178 57.0606 11.0684L57.1567 10.6264C56.5227 11.3374 56.0424 11.6833 55.7158 11.6833C55.5236 11.6833 55.4276 11.5872 55.4276 11.3758C55.4276 11.2797 55.466 11.0299 55.5428 10.6648L56.2921 6.84086C56.5034 5.8032 56.734 5.11142 56.9837 4.72711C57.2527 4.34279 57.637 4.16984 58.1557 4.16984C58.4247 4.16984 58.7513 4.24671 59.1355 4.41965L59.7887 3.72788C59.5197 3.65101 59.2316 3.6318 58.9242 3.6318C58.1365 3.59336 57.4256 3.86239 56.7916 4.362Z" fill="white"/>
<path d="M61.8823 11.2027C61.5941 10.8952 61.4596 10.5109 61.4596 10.0497C61.4596 9.18501 61.9015 8.53167 62.8045 8.12813C63.2079 9.30031 63.7075 10.3188 64.2838 11.1643C63.7651 11.4909 63.3232 11.6447 62.939 11.6447C62.4971 11.6639 62.1513 11.5101 61.8823 11.2027ZM63.3616 6.34105C63.3616 5.95673 63.4577 5.63006 63.6306 5.39947C63.8035 5.14966 64.0533 5.03436 64.3414 5.03436C64.8025 5.03436 65.0331 5.3226 65.0331 5.87987C65.0331 6.66772 64.5528 7.26342 63.5922 7.62852C63.4385 7.1289 63.3616 6.68694 63.3616 6.34105ZM63.1119 5.34182C62.6892 5.74535 62.4587 6.20654 62.4587 6.70615C62.4587 6.97518 62.5547 7.3595 62.7276 7.85911C61.2099 8.47402 60.4414 9.30031 60.4414 10.338C60.4414 10.8952 60.6335 11.3372 60.9986 11.7023C61.3636 12.0674 61.8439 12.2403 62.401 12.2403C63.0735 12.2403 63.7459 11.9713 64.4375 11.3948C65.6094 12.9706 66.6277 13.9314 68.5681 14.0851C71.2386 14.2965 72.5834 12.4517 73.0253 10.165L73.3135 8.74304H73.544C74.0051 8.74304 74.5046 8.78148 75.0041 8.85834L75.4844 8.35873H73.3711L73.9859 5.26496H74.1972C75.5229 5.26496 77.2135 5.47633 77.2135 5.89908C77.2135 6.03359 77.1943 6.14889 77.1559 6.2834H77.4633L77.9051 4.91907H74.0627C72.6795 4.91907 71.642 5.14966 70.9696 5.61084C70.278 6.07203 69.8937 6.80223 69.8169 7.78225L70.7583 7.32106V7.20577C70.7583 6.62929 70.9696 6.16811 71.3731 5.803C71.7765 5.4379 72.3144 5.26496 72.9869 5.26496L72.3721 8.33951H71.8534L71.5075 8.72383H72.276L71.7957 11.1258C71.4499 12.8937 70.6238 13.6431 69.3366 13.6815C67.4154 13.7584 66.2242 12.1827 65.2444 10.8184C65.8592 10.2611 66.3011 9.58855 66.5508 8.81991H66.7045C67.0503 8.81991 67.3962 8.66618 67.7804 8.37794L68.1646 7.78225C67.8188 7.99362 67.3385 8.0897 66.7045 8.0897H65.4173L64.9562 8.80069H65.9553C65.8784 9.45403 65.571 10.0305 65.0715 10.5686C64.572 9.79992 64.1109 8.99285 63.6882 7.87833C65.1099 7.43636 65.8208 6.7638 65.8208 5.87987C65.8208 5.53398 65.7055 5.24574 65.475 5.01515C65.2444 4.80377 64.937 4.68848 64.5528 4.68848C64.0148 4.72691 63.5345 4.93828 63.1119 5.34182Z" fill="white"/>
<path d="M77.6172 10.2038C77.6172 9.41592 77.8093 8.70493 78.1744 8.07081C78.5394 7.43668 78.962 7.12922 79.4231 7.12922C80.0763 7.12922 80.4029 7.66727 80.4029 8.72415C80.4029 9.53122 80.23 10.2422 79.865 10.8571C79.5 11.472 79.0773 11.7795 78.597 11.7795C77.9438 11.7795 77.6172 11.2414 77.6172 10.2038ZM77.6172 7.87865C76.9064 8.6665 76.5605 9.53122 76.5605 10.4536C76.5605 10.9532 76.695 11.3567 76.9832 11.6834C77.2714 12.0101 77.6172 12.183 78.0399 12.183C78.9044 12.183 79.6921 11.7987 80.4029 11.0108C81.1138 10.2422 81.4596 9.35827 81.4596 8.39748C81.4596 7.89786 81.3059 7.49433 81.0177 7.16765C80.7296 6.84098 80.3645 6.68726 79.9034 6.68726C79.0773 6.70647 78.3088 7.09079 77.6172 7.87865Z" fill="white"/>
<path d="M87.7401 3.47841C87.6441 3.57449 87.548 3.67057 87.4712 3.78586C87.183 3.65135 86.818 3.61292 86.5106 3.61292C85.5884 3.61292 84.8007 3.93959 84.1667 4.59293C83.5327 5.24628 83.0908 6.14943 82.8603 7.3216L82.1879 10.6652C82.111 11.0111 82.0918 11.2801 82.0918 11.4915C82.0918 11.9911 82.3223 12.2409 82.7834 12.2409C83.3406 12.2409 83.9938 11.8566 84.7431 11.0687L84.8391 10.6267C84.7239 10.742 84.6278 10.7997 84.5894 10.8573C83.9746 11.4338 83.5519 11.7221 83.3406 11.7221C83.1485 11.7221 83.0524 11.626 83.0524 11.4146C83.0524 11.2993 83.0908 11.0687 83.1677 10.6844L83.9362 6.86042C84.1475 5.82275 84.378 5.11176 84.6278 4.74666C84.8775 4.38156 85.281 4.20861 85.7805 4.1894C86.184 4.17018 86.7219 4.34312 87.0101 4.57372C86.7603 5.05412 86.5682 5.61138 86.4529 6.24551L85.5692 10.6844C85.4923 11.0303 85.4731 11.2993 85.4731 11.5107C85.4731 12.0103 85.7037 12.2601 86.1648 12.2601C86.7219 12.2601 87.3751 11.8758 88.1244 11.0879L88.2204 10.646C88.1052 10.7613 88.0091 10.8189 87.9707 10.8766C87.3559 11.453 86.9332 11.7413 86.7219 11.7413C86.5298 11.7413 86.4337 11.6452 86.4337 11.4338C86.4337 11.3185 86.4721 11.0879 86.549 10.7036L87.5288 5.78432C87.7401 4.74666 87.9707 4.03567 88.2204 3.67057C88.4702 3.30546 88.8544 3.1133 89.3732 3.1133C89.6421 3.1133 89.9687 3.19017 90.3338 3.36311L91.0062 2.67134C90.7564 2.59447 90.449 2.57526 90.1417 2.57526C89.1618 2.49839 88.3741 2.82506 87.7401 3.47841Z" fill="white"/>
<path d="M89.6817 10.2038C89.6817 9.41592 89.8738 8.70493 90.2388 8.07081C90.6038 7.43668 91.0265 7.12922 91.4876 7.12922C92.1408 7.12922 92.4674 7.66727 92.4674 8.72415C92.4674 9.53122 92.2945 10.2422 91.9295 10.8571C91.5644 11.472 91.1418 11.7795 90.6615 11.7795C90.0083 11.7795 89.6817 11.2414 89.6817 10.2038ZM89.6817 7.87865C88.9708 8.6665 88.625 9.53122 88.625 10.4536C88.625 10.9532 88.7595 11.3567 89.0477 11.6834C89.3358 12.0101 89.6817 12.183 90.1043 12.183C90.9689 12.183 91.7566 11.7987 92.4674 11.0108C93.1783 10.2422 93.5241 9.35827 93.5241 8.39748C93.5241 7.89786 93.3704 7.49433 93.0822 7.16765C92.794 6.84098 92.429 6.68726 91.9679 6.68726C91.1418 6.70647 90.3925 7.09079 89.6817 7.87865Z" fill="white"/>
<path d="M94.0427 7.91714L93.9082 8.57048C94.4077 7.78263 94.8496 7.39831 95.2338 7.39831C95.6373 7.39831 95.9063 7.68655 96.06 8.24381C96.2137 8.80108 96.2905 9.80031 96.2905 11.2415C96.2905 11.549 96.2905 11.8756 96.2713 12.2023L96.79 12.087C97.4816 11.2415 98.2309 10.0117 98.9994 8.39754C99.1723 9.24304 99.2491 10.3191 99.2491 11.6258L99.2299 12.2023L99.7102 12.087L100.613 10.8572L100.882 10.5113C101.555 9.60815 102.054 8.87794 102.342 8.35911C102.63 7.84028 102.784 7.45596 102.784 7.18694C102.784 7.05242 102.765 6.91791 102.707 6.7834L101.631 6.84105C101.766 7.11007 101.843 7.34066 101.843 7.55204C101.843 7.89793 101.67 8.41676 101.343 9.08932C101.017 9.76187 100.613 10.396 100.152 11.0109C100.152 9.60815 99.9408 8.20538 99.4989 6.7834L99.057 6.8987C98.9033 8.16695 98.2693 9.56971 97.1935 11.1262L97.2127 10.6266C97.2127 8.03244 96.7132 6.72575 95.7333 6.72575C95.1762 6.70654 94.6191 7.11007 94.0427 7.91714Z" fill="white"/>
<path d="M33.1795 16.1607H33.4677C33.8712 16.1607 34.0441 16.4105 34.0441 17.0638C34.0441 17.7172 33.8904 17.9478 33.4869 17.9478H33.1795V16.1607ZM32.6992 15.9109V18.2168H33.4869C34.217 18.2168 34.6012 17.8133 34.6012 17.0831C34.6012 16.3144 34.1978 15.9301 33.4869 15.9301H32.6992V15.9109Z" fill="white"/>
<path d="M36.2933 16.2568L36.6199 17.3329H35.9667L36.2933 16.2568ZM36.1396 15.9109L35.3711 18.2168H35.6593L35.8706 17.5635H36.6775L36.8696 18.2168H37.3884L36.6775 15.9109H36.1396Z" fill="white"/>
<path d="M39.8449 15.9109V17.3137L39.8641 17.4674L38.9035 15.9109H38.3848V18.2168H38.6922V16.6987L38.6729 16.4874L39.768 18.2168H40.1523V15.9109H39.8449Z" fill="white"/>
<path d="M41.2285 17.0828C41.2285 17.7938 41.5935 18.255 42.2852 18.255C42.8807 18.255 43.0921 17.8322 43.0921 17.8322L42.9384 17.6593C42.9384 17.6593 42.7271 17.986 42.3428 17.986C41.9586 17.986 41.7472 17.7554 41.7472 17.0636C41.7472 16.3718 41.9394 16.1412 42.3236 16.1412C42.5926 16.1412 42.9192 16.3142 42.9192 16.3142L42.9768 16.0644C42.9768 16.0644 42.631 15.8914 42.266 15.8914C41.6128 15.8722 41.2285 16.3526 41.2285 17.0828Z" fill="white"/>
<path d="M44.0918 15.9109V18.2168H45.5135V17.967H44.5721V17.1791H45.3598V16.9293H44.5721V16.1607H45.4751V15.9109H44.0918Z" fill="white"/>
<path d="M48.2035 16.5641C48.2035 17.2943 49.1257 17.2174 49.1257 17.6594C49.1257 17.8516 49.0104 17.9861 48.7798 17.9861C48.434 17.9861 48.2419 17.7555 48.2419 17.7555L48.1074 17.9669C48.1074 17.9669 48.2803 18.2551 48.7991 18.2551C49.2409 18.2551 49.606 18.0053 49.606 17.5633C49.606 16.7947 48.6838 16.91 48.6838 16.4104C48.6838 16.2182 48.7991 16.1221 48.972 16.1221C49.2217 16.1221 49.4523 16.2758 49.4523 16.2758L49.5099 16.026C49.5099 16.026 49.2601 15.8723 48.9528 15.8723C48.5109 15.8723 48.2035 16.1413 48.2035 16.5641Z" fill="white"/>
<path d="M50.5469 17.0828C50.5469 17.7938 50.9119 18.255 51.6035 18.255C52.1991 18.255 52.4104 17.8322 52.4104 17.8322L52.2567 17.6593C52.2567 17.6593 52.0454 17.986 51.6612 17.986C51.2769 17.986 51.0656 17.7554 51.0656 17.0636C51.0656 16.3718 51.2577 16.1412 51.642 16.1412C51.9109 16.1412 52.2375 16.3142 52.2375 16.3142L52.2952 16.0644C52.2952 16.0644 51.9493 15.8914 51.5843 15.8914C50.9311 15.8722 50.5469 16.3526 50.5469 17.0828Z" fill="white"/>
<path d="M54.6974 15.9109V16.9101H53.8905V15.9109H53.4102V18.2168H53.8905V17.1599H54.6974V18.2168H55.1777V15.9109H54.6974Z" fill="white"/>
<path d="M56.7899 17.0637C56.7899 16.4104 56.9436 16.1221 57.2894 16.1221C57.6544 16.1221 57.8081 16.4104 57.8081 17.0637C57.8081 17.717 57.6544 18.0053 57.2894 18.0053C56.9244 18.0053 56.7899 17.717 56.7899 17.0637ZM56.252 17.0637C56.252 17.7939 56.617 18.2551 57.2894 18.2551C57.9618 18.2551 58.3461 17.7939 58.3461 17.0637C58.3461 16.3335 57.981 15.8723 57.2894 15.8723C56.617 15.8723 56.252 16.3527 56.252 17.0637Z" fill="white"/>
<path d="M59.8446 17.0637C59.8446 16.4104 59.9983 16.1221 60.3441 16.1221C60.7091 16.1221 60.8628 16.4104 60.8628 17.0637C60.8628 17.717 60.7091 18.0053 60.3441 18.0053C59.9791 18.0053 59.8446 17.717 59.8446 17.0637ZM59.3066 17.0637C59.3066 17.7939 59.6717 18.2551 60.3441 18.2551C61.0165 18.2551 61.4007 17.7939 61.4007 17.0637C61.4007 16.3335 61.0357 15.8723 60.3441 15.8723C59.6717 15.8723 59.3066 16.3527 59.3066 17.0637Z" fill="white"/>
<path d="M62.4766 15.9109V18.2168H63.8598V17.967H62.9569V15.9109H62.4766Z" fill="white"/>
</svg>
