<?xml version="1.0" encoding="UTF-8"?>
<svg version="1.1" xmlns="http://www.w3.org/2000/svg" width="1920" height="1080">
<path d="M0 0 C633.6 0 1267.2 0 1920 0 C1920 356.4 1920 712.8 1920 1080 C1286.4 1080 652.8 1080 0 1080 C0 723.6 0 367.2 0 0 Z " fill="#FEFEFE" transform="translate(0,0)"/>
<path d="M0 0 C2.5 0.125 2.5 0.125 3.5 1.125 C4.14121085 14.42069552 3.12540197 27.84518795 2.5 41.125 C5.14 39.805 7.78 38.485 10.5 37.125 C10.83 29.865 11.16 22.605 11.5 15.125 C12.82 14.795 14.14 14.465 15.5 14.125 C19.48616765 20.10425147 17.36842185 28.28617796 16.5 35.125 C17.551875 34.650625 18.60375 34.17625 19.6875 33.6875 C24.98198385 31.43814013 29.71800359 30.71924587 35.5 31.125 C39.12371611 32.58842381 42.04837947 34.05458422 44.5 37.125 C44.84057617 39.30151367 44.84057617 39.30151367 44.79296875 41.79296875 C44.78330078 42.68564453 44.77363281 43.57832031 44.76367188 44.49804688 C44.73853516 45.42681641 44.71339844 46.35558594 44.6875 47.3125 C44.66719727 48.72305664 44.66719727 48.72305664 44.64648438 50.16210938 C44.61113096 52.48365038 44.56178674 54.80403653 44.5 57.125 C42.84385343 57.50718767 41.17542976 57.83895102 39.5 58.125 C37.16685148 55.79185148 38.14247433 48.99818395 38.0703125 45.65039062 C38.039375 44.84923828 38.0084375 44.04808594 37.9765625 43.22265625 C37.9468335 42.11676147 37.9468335 42.11676147 37.91650391 40.98852539 C37.63372567 38.71507774 37.63372567 38.71507774 34.5 37.125 C27.8781305 36.54413425 22.78179426 38.03106858 16.5 40.125 C16.5 46.065 16.5 52.005 16.5 58.125 C14.52 58.62 14.52 58.62 12.5 59.125 C11.5 58.125 11.5 58.125 11.40234375 54.74609375 C11.40901631 53.35152923 11.42097468 51.95698257 11.4375 50.5625 C11.44201172 49.85158203 11.44652344 49.14066406 11.45117188 48.40820312 C11.46299136 46.64709987 11.48092737 44.88603964 11.5 43.125 C7.54 45.105 7.54 45.105 3.5 47.125 C3.50523682 48.39206787 3.51047363 49.65913574 3.51586914 50.96459961 C3.53391514 55.6478607 3.54543053 60.33111871 3.55493164 65.0144043 C3.55997278 67.04468298 3.56680557 69.07495802 3.57543945 71.10522461 C3.58751467 74.01677347 3.59323034 76.9282745 3.59765625 79.83984375 C3.60281754 80.7533812 3.60797882 81.66691864 3.61329651 82.60813904 C3.61349168 84.78075427 3.56211805 86.95327296 3.5 89.125 C3.17 89.455 2.84 89.785 2.5 90.125 C0.85 90.125 -0.8 90.125 -2.5 90.125 C-2.5 76.925 -2.5 63.725 -2.5 50.125 C-4.48 50.785 -6.46 51.445 -8.5 52.125 C-8.83 60.045 -9.16 67.965 -9.5 76.125 C-11.975 76.62 -11.975 76.62 -14.5 77.125 C-15.5 76.125 -15.5 76.125 -15.61352539 74.08374023 C-15.60828857 73.20919189 -15.60305176 72.33464355 -15.59765625 71.43359375 C-15.59443359 70.48935547 -15.59121094 69.54511719 -15.58789062 68.57226562 C-15.57951172 67.57904297 -15.57113281 66.58582031 -15.5625 65.5625 C-15.55798828 64.56541016 -15.55347656 63.56832031 -15.54882812 62.54101562 C-15.53700007 60.06895151 -15.52051849 57.59700482 -15.5 55.125 C-16.14461182 55.43252197 -16.78922363 55.74004395 -17.45336914 56.05688477 C-24.04840602 59.12409922 -30.2606699 60.36541697 -37.5 59.125 C-41.45475015 56.3566749 -43.04971383 53.6461095 -44.5 49.125 C-44.765625 45.4609375 -44.765625 45.4609375 -44.75 41.5 C-44.75515625 40.18773437 -44.7603125 38.87546875 -44.765625 37.5234375 C-44.5 34.125 -44.5 34.125 -42.5 31.125 C-39.5 32.125 -39.5 32.125 -38.5 34.125 C-38.26874318 37.29285131 -38.10551721 40.45349544 -37.98242188 43.62695312 C-37.79284358 47.27901807 -37.57639343 49.01040985 -35.5 52.125 C-28.85988498 53.31255903 -21.95824691 51.60117072 -15.5 50.125 C-15.5 44.515 -15.5 38.905 -15.5 33.125 C-14.18 32.465 -12.86 31.805 -11.5 31.125 C-10.84 31.455 -10.18 31.785 -9.5 32.125 C-9.0859375 35.28515625 -9.0859375 35.28515625 -8.875 39.1875 C-8.80023437 40.47785156 -8.72546875 41.76820313 -8.6484375 43.09765625 C-8.59945312 44.09667969 -8.55046875 45.09570312 -8.5 46.125 C-7.18 45.465 -5.86 44.805 -4.5 44.125 C-4.47494385 42.82763916 -4.4498877 41.53027832 -4.42407227 40.19360352 C-4.33018248 35.39841144 -4.22991751 30.6033705 -4.12768555 25.80834961 C-4.08426666 23.72960943 -4.04259688 21.65083197 -4.00268555 19.57202148 C-3.94515079 16.59086855 -3.88140881 13.60990451 -3.81640625 10.62890625 C-3.79969376 9.69349503 -3.78298126 8.7580838 -3.76576233 7.79432678 C-3.74581711 6.93350998 -3.72587189 6.07269318 -3.70532227 5.18579102 C-3.68977798 4.42412125 -3.6742337 3.66245148 -3.65821838 2.87770081 C-3.40264744 0.04655441 -2.85006348 0.14250317 0 0 Z " fill="#2A24AC" transform="translate(966.5,480.875)"/>
<path d="M0 0 C4.82447863 1.69750174 8.20638854 4.65800895 12 8 C12.55429688 7.50628906 13.10859375 7.01257813 13.6796875 6.50390625 C14.40414063 5.86324219 15.12859375 5.22257813 15.875 4.5625 C16.59429688 3.92441406 17.31359375 3.28632812 18.0546875 2.62890625 C22.22687486 -0.86467233 26.38423437 -0.39040501 31.65625 -0.34375 C36.32957664 0.13668545 39.75773545 1.56607449 43 5 C45.94592539 9.68361411 46.35839132 13.26539938 46.25 18.75 C46.23453125 20.06484375 46.2190625 21.3796875 46.203125 22.734375 C46 26 46 26 45 28 C43.35 28 41.7 28 40 28 C39.97421875 26.90300781 39.9484375 25.80601562 39.921875 24.67578125 C39.8655731 23.22131552 39.80822623 21.76688997 39.75 20.3125 C39.73582031 19.59126953 39.72164062 18.87003906 39.70703125 18.12695312 C39.48290999 13.2186976 38.64253712 10.58091525 35 7 C31.48010922 5.24005461 27.83199105 5.32783108 24 6 C21.25896298 7.63715636 19.17981623 9.68465116 17 12 C16.195625 12.78375 15.39125 13.5675 14.5625 14.375 C14.046875 14.91125 13.53125 15.4475 13 16 C8.52792762 14.59449154 6.19950835 12.3635857 3 9 C0.30413467 6.20785376 -1.72353245 5.74762096 -5.5 5.5625 C-8.77827638 5.67033804 -9.76669572 5.8308544 -12.5 7.8125 C-15.21743982 11.77543308 -15.2610496 15.49348657 -15.5625 20.1875 C-15.64628906 21.45980469 -15.73007812 22.73210938 -15.81640625 24.04296875 C-15.87699219 25.01878906 -15.93757812 25.99460937 -16 27 C-17.65 27.33 -19.3 27.66 -21 28 C-23.5558177 22.88836459 -22.58586387 14.51615762 -21.375 9 C-17.13747827 -0.24550196 -9.11914283 -0.65820585 0 0 Z " fill="#F51020" transform="translate(1038,512)"/>
<path d="M0 0 C1.65 0.33 3.3 0.66 5 1 C5.33 5.29 5.66 9.58 6 14 C7.485 13.34 8.97 12.68 10.5 12 C17.52143366 9.22109457 23.17571191 9.09398232 30.23828125 12.0078125 C33.56163783 13.87950335 35.33314122 16.66628244 37 20 C37.12327929 22.10148182 37.17558006 24.20743907 37.1875 26.3125 C37.20167969 27.44300781 37.21585938 28.57351563 37.23046875 29.73828125 C37.00480137 32.93204843 36.36342654 35.1276429 35 38 C33.35 38 31.7 38 30 38 C29.505 28.595 29.505 28.595 29 19 C23.17882135 16.08941067 17.85014736 16.07107556 11.5390625 17.59375 C8.8893347 18.77990974 7.66519409 19.59570908 6 22 C5.02378619 27.04198343 4.89690351 31.87739329 5 37 C2.625 37.625 2.625 37.625 0 38 C-2.80982705 35.19017295 -2.2582873 33.3829887 -2.265625 29.453125 C-2.26753845 28.80430359 -2.2694519 28.15548218 -2.27142334 27.48699951 C-2.27278524 26.11177178 -2.26908842 24.7365312 -2.26074219 23.36132812 C-2.25011109 21.27183495 -2.26060052 19.18321514 -2.2734375 17.09375 C-2.27211455 15.75520645 -2.26954936 14.41666345 -2.265625 13.078125 C-2.26336914 11.86543945 -2.26111328 10.65275391 -2.25878906 9.40332031 C-1.9969636 5.96006845 -1.23490148 3.21172491 0 0 Z " fill="#F51827" transform="translate(881,502)"/>
<path d="M0 0 C0.928125 0.86625 0.928125 0.86625 1.875 1.75 C1.545 3.4 1.215 5.05 0.875 6.75 C-4.45356909 6.33207301 -7.18329108 5.35384816 -11.125 1.75 C-13.69064725 0.46717637 -15.63533069 0.54608047 -18.5 0.5 C-19.45648437 0.47421875 -20.41296875 0.4484375 -21.3984375 0.421875 C-24.70485335 0.81978178 -25.95830063 1.19710653 -28.125 3.75 C-28.53009648 6.54751408 -28.73020099 9.01341553 -28.75 11.8125 C-28.88540734 19.51040734 -28.88540734 19.51040734 -31.125 21.75 C-33.1875 21.5 -33.1875 21.5 -35.125 20.75 C-37.63749251 15.72501499 -36.96518254 7.6690342 -35.44140625 2.375 C-33.26159833 -1.8218086 -30.46826586 -3.65451458 -26.125 -5.25 C-16.51696164 -8.03127426 -7.97277534 -5.74039824 0 0 Z " fill="#F41727" transform="translate(873.125,518.25)"/>
<path d="M0 0 C2.5 0.125 2.5 0.125 3.5 1.125 C4.16551631 14.74851033 3.112075 28.51609846 2.5 42.125 C0.52 42.785 -1.46 43.445 -3.5 44.125 C-3.52464513 38.0194529 -3.54283371 31.91393449 -3.55493164 25.80834961 C-3.55997288 23.72956844 -3.56680574 21.65079084 -3.57543945 19.57202148 C-3.58751422 16.59097414 -3.59323024 13.60997351 -3.59765625 10.62890625 C-3.60539818 9.22578941 -3.60539818 9.22578941 -3.61329651 7.79432678 C-3.61337204 6.93350998 -3.61344757 6.07269318 -3.61352539 5.18579102 C-3.615746 4.42412125 -3.61796661 3.66245148 -3.62025452 2.87770081 C-3.42553146 0.03962645 -2.84164665 0.14208233 0 0 Z " fill="#3A34B1" transform="translate(966.5,480.875)"/>
<path d="M0 0 C3 1 3 1 4 3 C4.23125682 6.16785131 4.39448279 9.32849544 4.51757812 12.50195312 C4.70715642 16.15401807 4.92360657 17.88540985 7 21 C13.6170031 22.18342555 20.56367372 20.53376286 27 19 C27 20.65 27 22.3 27 24 C19.80100048 27.56764578 13.05302702 29.37983919 5 28 C1.04524985 25.2316749 -0.54971383 22.5211095 -2 18 C-2.265625 14.3359375 -2.265625 14.3359375 -2.25 10.375 C-2.25515625 9.06273437 -2.2603125 7.75046875 -2.265625 6.3984375 C-2 3 -2 3 0 0 Z " fill="#F41625" transform="translate(924,512)"/>
<path d="M0 0 C1.32 0.33 2.64 0.66 4 1 C4 15.52 4 30.04 4 45 C1.525 45.495 1.525 45.495 -1 46 C-2.5273211 44.4726789 -2.13452391 43.09995977 -2.14526367 40.97094727 C-2.15164352 40.11658585 -2.15802338 39.26222443 -2.16459656 38.38197327 C-2.16570938 37.45283615 -2.1668222 36.52369904 -2.16796875 35.56640625 C-2.17129715 34.61813461 -2.17462555 33.66986298 -2.17805481 32.69285583 C-2.18312819 30.68285611 -2.18546301 28.67284792 -2.18530273 26.6628418 C-2.18748822 23.57912381 -2.20563683 20.49576394 -2.22460938 17.41210938 C-2.22754334 15.4635429 -2.22952812 13.51497471 -2.23046875 11.56640625 C-2.23765427 10.63929337 -2.24483978 9.71218048 -2.25224304 8.75697327 C-2.24916641 7.89945969 -2.24608978 7.04194611 -2.24291992 6.15844727 C-2.24434494 5.40201431 -2.24576996 4.64558136 -2.24723816 3.8662262 C-2 2 -2 2 0 0 Z " fill="#473EB2" transform="translate(953,512)"/>
<path d="M0 0 C2.11960694 1.68398124 2.91658148 2.46689882 3.34057617 5.17651367 C3.32486572 5.99869385 3.30915527 6.82087402 3.29296875 7.66796875 C3.28330078 8.56064453 3.27363281 9.45332031 3.26367188 10.37304688 C3.23853516 11.30181641 3.21339844 12.23058594 3.1875 13.1875 C3.16719727 14.59805664 3.16719727 14.59805664 3.14648438 16.03710938 C3.11113096 18.35865038 3.06178674 20.67903653 3 23 C1.34385343 23.38218767 -0.32457024 23.71395102 -2 24 C-4.33314852 21.66685148 -3.35752567 14.87318395 -3.4296875 11.52539062 C-3.460625 10.72423828 -3.4915625 9.92308594 -3.5234375 9.09765625 C-3.54325684 8.36039307 -3.56307617 7.62312988 -3.58349609 6.86352539 C-3.86627433 4.59007774 -3.86627433 4.59007774 -7 3 C-13.54159413 2.42617595 -18.83515789 3.87767731 -25 6 C-25 4.35 -25 2.7 -25 1 C-16.46383547 -2.84964283 -8.58868549 -5.27032973 0 0 Z " fill="#F30F1F" transform="translate(1008,515)"/>
<path d="M0 0 C1.09633922 24.18652612 1.09633922 24.18652612 1.125 35 C1.12951172 35.70439209 1.13402344 36.40878418 1.13867188 37.13452148 C1.12426271 41.87573729 1.12426271 41.87573729 0 43 C-1.65 43 -3.3 43 -5 43 C-5.33 29.47 -5.66 15.94 -6 2 C-1 0 -1 0 0 0 Z " fill="#312CAE" transform="translate(969,528)"/>
<path d="M0 0 C0.66 2.64 1.32 5.28 2 8 C1.34 8 0.68 8 0 8 C0 9.65 0 11.3 0 13 C-3.21866989 14.60933494 -6.5189802 14.59733476 -10 14 C-12.5625 11.9375 -12.5625 11.9375 -14 9 C-14 5.26334037 -13.75990994 3.01321325 -11.5 0 C-7.62086435 -1.55165426 -4.03768616 -0.71608537 0 0 Z " fill="#ECECF3" transform="translate(1029,579)"/>
<path d="M0 0 C8.77342419 -0.6132879 8.77342419 -0.6132879 13.125 1.5625 C15 4 15 4 15.5 7.5 C14.9736661 11.18433732 14.62806773 12.45492388 12 15 C9.08203125 15.390625 9.08203125 15.390625 5.8125 15.25 C4.72582031 15.21390625 3.63914062 15.1778125 2.51953125 15.140625 C1.27236328 15.07101562 1.27236328 15.07101562 0 15 C0.33 14.34 0.66 13.68 1 13 C1.09608608 11.16871229 1.12982579 9.33380041 1.125 7.5 C1.12757813 6.5203125 1.13015625 5.540625 1.1328125 4.53125 C1.16940053 2.00568946 1.16940053 2.00568946 0 0 Z " fill="#5552B9" transform="translate(935,578)"/>
<path d="M0 0 C0 1.98 0 3.96 0 6 C-2.72832386 7.29347217 -5.45761369 8.58483296 -8.1875 9.875 C-9.34088867 10.42220703 -9.34088867 10.42220703 -10.51757812 10.98046875 C-14.30633586 12.76915266 -18.08159403 14.50802178 -22 16 C-22 14.02 -22 12.04 -22 10 C-18.5223207 8.33021655 -15.04261659 6.66469701 -11.5625 5 C-10.56927734 4.52304687 -9.57605469 4.04609375 -8.55273438 3.5546875 C-7.60849609 3.10351562 -6.66425781 2.65234375 -5.69140625 2.1875 C-4.81685791 1.76855469 -3.94230957 1.34960938 -3.04125977 0.91796875 C-1 0 -1 0 0 0 Z " fill="#EC0F25" transform="translate(978,518)"/>
<path d="M0 0 C0.99 0 1.98 0 3 0 C3 1.98 3 3.96 3 6 C3.99 5.67 4.98 5.34 6 5 C6 3.35 6 1.7 6 0 C7.65 0.33 9.3 0.66 11 1 C10.835 1.78375 10.67 2.5675 10.5 3.375 C9.63933085 7.89351303 10.88273177 9.94190257 13 14 C11.35 14 9.7 14 8 14 C7.34 11.69 6.68 9.38 6 7 C5.34 7 4.68 7 4 7 C4.33 9.31 4.66 11.62 5 14 C3.35 14 1.7 14 0 14 C0 9.38 0 4.76 0 0 Z " fill="#534FB6" transform="translate(839,579)"/>
<path d="M0 0 C6.625 -0.25 6.625 -0.25 10 2 C10.3125 5 10.3125 5 10 8 C9.34 8.66 8.68 9.32 8 10 C6.68 10 5.36 10 4 10 C4.33 11.98 4.66 13.96 5 16 C3.02 16 1.04 16 -1 16 C-0.67 15.34 -0.34 14.68 0 14 C0.07116382 11.62597499 0.08409085 9.24999323 0.0625 6.875 C0.05347656 5.59367188 0.04445313 4.31234375 0.03515625 2.9921875 C0.02355469 2.00476563 0.01195312 1.01734375 0 0 Z " fill="#6562BA" transform="translate(1074,583)"/>
<path d="M0 0 C0.33 0 0.66 0 1 0 C1 2.31 1 4.62 1 7 C1.99 7.33 2.98 7.66 4 8 C4 14.6 4 21.2 4 28 C2.35 27.67 0.7 27.34 -1 27 C-1.15178302 17.94361322 -0.69037426 9.02417777 0 0 Z " fill="#2520AB" transform="translate(952,530)"/>
<path d="M0 0 C2.31284456 0.14026283 4.62527591 0.28735558 6.9375 0.4375 C8.86916016 0.55931641 8.86916016 0.55931641 10.83984375 0.68359375 C14 1 14 1 15 2 C15.23192865 3.51469448 15.41215238 5.03754562 15.5625 6.5625 C15.64628906 7.38878906 15.73007812 8.21507812 15.81640625 9.06640625 C15.87699219 9.70449219 15.93757812 10.34257813 16 11 C14.68 11 13.36 11 12 11 C12 8.36 12 5.72 12 3 C11.34 3 10.68 3 10 3 C9.67 5.31 9.34 7.62 9 10 C8.34 10 7.68 10 7 10 C7 7.69 7 5.38 7 3 C6.01 3 5.02 3 4 3 C4 5.64 4 8.28 4 11 C2.68 11 1.36 11 0 11 C0 7.37 0 3.74 0 0 Z " fill="#4E4AB4" transform="translate(907,582)"/>
<path d="M0 0 C-0.33 0.99 -0.66 1.98 -1 3 C-1.33 2.67 -1.66 2.34 -2 2 C-4.33297433 1.95907063 -6.66705225 1.95758277 -9 2 C-9 4.97 -9 7.94 -9 11 C-7.35 11.33 -5.7 11.66 -4 12 C-4 10.35 -4 8.7 -4 7 C-2.35 7 -0.7 7 1 7 C0.625 9.9375 0.625 9.9375 0 13 C-3.21866989 14.60933494 -6.5189802 14.59733476 -10 14 C-12.5625 11.9375 -12.5625 11.9375 -14 9 C-14 5.26334037 -13.75990994 3.01321325 -11.5 0 C-7.62086435 -1.55165426 -4.03768616 -0.71608537 0 0 Z " fill="#5B58B8" transform="translate(1029,579)"/>
<path d="M0 0 C0.99 0 1.98 0 3 0 C3 1.98 3 3.96 3 6 C3.928125 5.7215625 3.928125 5.7215625 4.875 5.4375 C7 5 7 5 9 6 C9.4140625 8.06640625 9.4140625 8.06640625 9.625 10.5625 C9.69976563 11.38878906 9.77453125 12.21507812 9.8515625 13.06640625 C9.90054688 13.70449219 9.94953125 14.34257813 10 15 C8.68 15 7.36 15 6 15 C6 12.36 6 9.72 6 7 C5.34 7 4.68 7 4 7 C4 9.64 4 12.28 4 15 C2.35 15 0.7 15 -1 15 C-0.67 10.05 -0.34 5.1 0 0 Z " fill="#625FBD" transform="translate(893,578)"/>
<path d="M0 0 C2.5625 0.25 2.5625 0.25 5.5625 2.25 C6.03980962 5.97301503 5.7012261 7.04191085 3.5625 10.25 C0.5625 10.5625 0.5625 10.5625 -2.4375 10.25 C-4.4375 8.25 -4.4375 8.25 -4.6875 5.25 C-4.37752366 1.53028393 -3.8002894 0.38977327 0 0 Z " fill="#B9B8DB" transform="translate(1050.4375,582.75)"/>
<path d="M0 0 C0.99 0 1.98 0 3 0 C3 1.98 3 3.96 3 6 C3.61875 5.814375 4.2375 5.62875 4.875 5.4375 C7 5 7 5 9 6 C9.4140625 8.06640625 9.4140625 8.06640625 9.625 10.5625 C9.69976563 11.38878906 9.77453125 12.21507812 9.8515625 13.06640625 C9.90054688 13.70449219 9.94953125 14.34257813 10 15 C8.68 15 7.36 15 6 15 C6 12.36 6 9.72 6 7 C5.01 7.495 5.01 7.495 4 8 C3.59270772 10.32156597 3.25561323 12.6568787 3 15 C2.01 15 1.02 15 0 15 C0 10.05 0 5.1 0 0 Z " fill="#5A56B9" transform="translate(856,578)"/>
<path d="M0 0 C1.65 0 3.3 0 5 0 C7.31332486 3.46998729 7.33957563 4.92509248 7 9 C6.01 10.485 6.01 10.485 5 12 C3.35 12 1.7 12 0 12 C0 8.04 0 4.08 0 0 Z " fill="#EFF0F6" transform="translate(940,580)"/>
<path d="M0 0 C0 3.3 0 6.6 0 10 C-2.33294775 10.04241723 -4.66702567 10.04092937 -7 10 C-8 9 -8 9 -8.09765625 7.15234375 C-8.06510417 5.1015625 -8.03255208 3.05078125 -8 1 C-5.10765685 0.17361624 -3.11257569 0 0 0 Z " fill="#9E9CD2" transform="translate(1069,583)"/>
<path d="M0 0 C0.33 2.97 0.66 5.94 1 9 C-0.32 9 -1.64 9 -3 9 C-3 6.36 -3 3.72 -3 1 C-3.66 1 -4.32 1 -5 1 C-5.33 3.64 -5.66 6.28 -6 9 C-7.32 8.67 -8.64 8.34 -10 8 C-9.67 5.36 -9.34 2.72 -9 0 C-5.32431536 -0.91892116 -3.83619425 -0.95904856 0 0 Z " fill="#5551B5" transform="translate(977,584)"/>
<path d="M0 0 C2.375 -0.125 2.375 -0.125 5 0 C7 2 7 2 7.1953125 3.9453125 C7.13020833 5.96354167 7.06510417 7.98177083 7 10 C4.36 10 1.72 10 -1 10 C-0.50168276 6.31245243 0.10067643 4.39509338 3 2 C1.68 2.33 0.36 2.66 -1 3 C-0.67 2.01 -0.34 1.02 0 0 Z " fill="#6E6BBD" transform="translate(956,583)"/>
<path d="M0 0 C0.99 0 1.98 0 3 0 C3.33 0.99 3.66 1.98 4 3 C4.66 3.33 5.32 3.66 6 4 C6 2.68 6 1.36 6 0 C6.66 0 7.32 0 8 0 C7.54857225 1.77260631 7.08859477 3.5430368 6.625 5.3125 C6.36976563 6.29863281 6.11453125 7.28476562 5.8515625 8.30078125 C5 11 5 11 3 14 C0.375 14.1875 0.375 14.1875 -2 14 C-1.67 13.01 -1.34 12.02 -1 11 C-0.01 11.33 0.98 11.66 2 12 C2.21278058 7.53160785 1.59138085 4.17737474 0 0 Z " fill="#5450B3" transform="translate(869,584)"/>
<path d="M0 0 C0.66 0.33 1.32 0.66 2 1 C1.67 1.66 1.34 2.32 1 3 C1.99 3 2.98 3 4 3 C4 2.01 4 1.02 4 0 C4.99 0.33 5.98 0.66 7 1 C7 1.99 7 2.98 7 4 C5.02 4 3.04 4 1 4 C1 4.99 1 5.98 1 7 C2.98 7 4.96 7 7 7 C6.67 7.66 6.34 8.32 6 9 C3.125 9.125 3.125 9.125 0 9 C-2 7 -2 7 -2.125 3.875 C-2.08375 2.92625 -2.0425 1.9775 -2 1 C-1.34 0.67 -0.68 0.34 0 0 Z " fill="#6461BA" transform="translate(996,584)"/>
<path d="M0 0 C2.31 0 4.62 0 7 0 C7.33 1.32 7.66 2.64 8 4 C6.68 3.67 5.36 3.34 4 3 C4 5.31 4 7.62 4 10 C3.01 10 2.02 10 1 10 C0.67 6.7 0.34 3.4 0 0 Z " fill="#6662BB" transform="translate(1035,583)"/>
<path d="M0 0 C2.64 0.33 5.28 0.66 8 1 C6.02 1.99 6.02 1.99 4 3 C4 5.64 4 8.28 4 11 C2.68 11 1.36 11 0 11 C0 7.37 0 3.74 0 0 Z " fill="#7471C0" transform="translate(907,582)"/>
<path d="M0 0 C0.33 0.99 0.66 1.98 1 3 C1.99 3 2.98 3 4 3 C4 3.66 4 4.32 4 5 C3.01 5 2.02 5 1 5 C1 7.31 1 9.62 1 12 C1.66 12.33 2.32 12.66 3 13 C1.35 12.67 -0.3 12.34 -2 12 C-2 9.69 -2 7.38 -2 5 C-2.66 4.67 -3.32 4.34 -4 4 C-2.68 2.68 -1.36 1.36 0 0 Z " fill="#605CB9" transform="translate(885,580)"/>
<path d="M0 0 C0.78375 0.04125 1.5675 0.0825 2.375 0.125 C2.705 1.115 3.035 2.105 3.375 3.125 C1.725 2.795 0.075 2.465 -1.625 2.125 C-1.17796014 6.60383696 -1.17796014 6.60383696 1.375 10.125 C-3.375 9.375 -3.375 9.375 -5.625 7.125 C-5.20813063 2.95630627 -4.65455455 0.22164545 0 0 Z " fill="#5D5AB7" transform="translate(986.625,582.875)"/>
<path d="M0 0 C2.86724686 0.57344937 3.8614515 0.8614515 6 3 C6.31537716 7.33643601 6.44897847 9.32653229 4 13 C3.01 12.67 2.02 12.34 1 12 C1.33 11.34 1.66 10.68 2 10 C2.25797575 6.04437178 2.09440189 3.40340307 0 0 Z " fill="#2C27A8" transform="translate(944,579)"/>
<path d="M0 0 C0.33 0 0.66 0 1 0 C1 2.31 1 4.62 1 7 C1.66 7 2.32 7 3 7 C3.33 4.69 3.66 2.38 4 0 C4.66 0 5.32 0 6 0 C6 2.64 6 5.28 6 8 C7.32 8.33 8.64 8.66 10 9 C6.7 8.67 3.4 8.34 0 8 C0 5.36 0 2.72 0 0 Z " fill="#D3D2E5" transform="translate(913,585)"/>
<path d="M0 0 C0.80824219 0.11085938 1.61648438 0.22171875 2.44921875 0.3359375 C3.37154297 0.47902344 3.37154297 0.47902344 4.3125 0.625 C3.9825 1.615 3.6525 2.605 3.3125 3.625 C2.9825 3.295 2.6525 2.965 2.3125 2.625 C-0.02047433 2.58407063 -2.35455225 2.58258277 -4.6875 2.625 C-5.0175 4.935 -5.3475 7.245 -5.6875 9.625 C-7.25 7.875 -7.25 7.875 -8.6875 5.625 C-8.5625 3.5 -8.5625 3.5 -7.6875 1.625 C-4.33422361 -0.61051759 -3.78006343 -0.54783528 0 0 Z " fill="#6662BB" transform="translate(1024.6875,578.375)"/>
<path d="M0 0 C3.3 0 6.6 0 10 0 C9.34 2.31 8.68 4.62 8 7 C7.01 7 6.02 7 5 7 C5 5.02 5 3.04 5 1 C3.35 1.33 1.7 1.66 0 2 C0 1.34 0 0.68 0 0 Z " fill="#B9B7DB" transform="translate(837,578)"/>
<path d="M0 0 C0.66 0 1.32 0 2 0 C2 2.64 2 5.28 2 8 C3.32 8.33 4.64 8.66 6 9 C4.00045254 9.04254356 1.99958364 9.04080783 0 9 C-1 8 -1 8 -1.125 4.5 C-1 1 -1 1 0 0 Z " fill="#E8E7F0" transform="translate(860,585)"/>
<path d="M0 0 C0.66 0 1.32 0 2 0 C2.66 2.31 3.32 4.62 4 7 C0.78548731 8.60725635 -2.43612536 8.05748185 -6 8 C-6 7.34 -6 6.68 -6 6 C-4.02 6 -2.04 6 0 6 C0 4.02 0 2.04 0 0 Z " fill="#EAEAF0" transform="translate(843,586)"/>
<path d="M0 0 C0.66 0 1.32 0 2 0 C2 2.64 2 5.28 2 8 C3.32 8.33 4.64 8.66 6 9 C1.25 9.125 1.25 9.125 -1 8 C-1.125 2.25 -1.125 2.25 0 0 Z " fill="#F1F1F4" transform="translate(972,585)"/>
<path d="M0 0 C-0.33 0.66 -0.66 1.32 -1 2 C-1.66 1.67 -2.32 1.34 -3 1 C-3 2.32 -3 3.64 -3 5 C-3.99 4.67 -4.98 4.34 -6 4 C-6 3.01 -6 2.02 -6 1 C-7.32 1.33 -8.64 1.66 -10 2 C-10 1.34 -10 0.68 -10 0 C-6.30581799 -1.231394 -3.7943739 -0.64432764 0 0 Z " fill="#CCCCE3" transform="translate(878,583)"/>
<path d="M0 0 C0.309375 1.11375 0.61875 2.2275 0.9375 3.375 C1.82326483 6.7945155 1.82326483 6.7945155 3 9 C1.125 8.6875 1.125 8.6875 -1 8 C-3 5 -3 5 -3 1 C-1 0 -1 0 0 0 Z " fill="#2F2AAA" transform="translate(1018,583)"/>
<path d="M0 0 C0.99 0.33 1.98 0.66 3 1 C2.67 3.31 2.34 5.62 2 8 C1.01 7.67 0.02 7.34 -1 7 C-1.04254356 5.00045254 -1.04080783 2.99958364 -1 1 C-0.67 0.67 -0.34 0.34 0 0 Z " fill="#4D49B3" transform="translate(1047,584)"/>
<path d="M0 0 C1.32 0.33 2.64 0.66 4 1 C4 2.65 4 4.3 4 6 C2.02 6.99 2.02 6.99 0 8 C0 5.36 0 2.72 0 0 Z " fill="#4C48B3" transform="translate(1052,584)"/>
<path d="M0 0 C1.32 0.33 2.64 0.66 4 1 C4 2.98 4 4.96 4 7 C3.01 7.33 2.02 7.66 1 8 C0.67 5.36 0.34 2.72 0 0 Z " fill="#3E39AE" transform="translate(1080,584)"/>
<path d="M0 0 C0.99 0 1.98 0 3 0 C3 2.97 3 5.94 3 9 C2.01 8.67 1.02 8.34 0 8 C0 5.36 0 2.72 0 0 Z " fill="#443FB2" transform="translate(1066,584)"/>
<path d="M0 0 C0.99 0 1.98 0 3 0 C3 1.98 3 3.96 3 6 C2.01 6.33 1.02 6.66 0 7 C0 4.69 0 2.38 0 0 Z " fill="#EEEEF2" transform="translate(1078,585)"/>
<path d="M0 0 C0.66 0.33 1.32 0.66 2 1 C1.34 2.65 0.68 4.3 0 6 C-1.65 6 -3.3 6 -5 6 C-4.67 5.01 -4.34 4.02 -4 3 C-3.01 3.33 -2.02 3.66 -1 4 C-0.67 2.68 -0.34 1.36 0 0 Z " fill="#7572BC" transform="translate(872,592)"/>
<path d="M0 0 C0.66 0.33 1.32 0.66 2 1 C2 2.65 2 4.3 2 6 C1.01 6.33 0.02 6.66 -1 7 C-1.04254356 5.00045254 -1.04080783 2.99958364 -1 1 C-0.67 0.67 -0.34 0.34 0 0 Z " fill="#E8E8F1" transform="translate(1051,585)"/>
<path d="M0 0 C1.32 0.33 2.64 0.66 4 1 C4 1.99 4 2.98 4 4 C2.02 4.99 2.02 4.99 0 6 C0 4.02 0 2.04 0 0 Z " fill="#DC0B2A" transform="translate(956,528)"/>
<path d="M0 0 C1.875 0.25 1.875 0.25 4 1 C5.25 3.0625 5.25 3.0625 6 5 C5.01 5 4.02 5 3 5 C1.3125 2.5 1.3125 2.5 0 0 Z " fill="#3A36AD" transform="translate(944,579)"/>
<path d="M0 0 C2.475 0.495 2.475 0.495 5 1 C5 2.32 5 3.64 5 5 C4.01 5 3.02 5 2 5 C1.34 3.35 0.68 1.7 0 0 Z " fill="#423EB2" transform="translate(845,579)"/>
</svg>
