<?xml version="1.0" encoding="UTF-8"?>
<svg version="1.1" xmlns="http://www.w3.org/2000/svg" width="300" height="300">
<path d="M0 0 C99 0 198 0 300 0 C300 99 300 198 300 300 C201 300 102 300 0 300 C0 201 0 102 0 0 Z " fill="#FEFDFE" transform="translate(0,0)"/>
<path d="M0 0 C99 0 198 0 300 0 C300 99 300 198 300 300 C201 300 102 300 0 300 C0 201 0 102 0 0 Z M5 5 C5 100.7 5 196.4 5 295 C100.7 295 196.4 295 295 295 C295 199.3 295 103.6 295 5 C199.3 5 103.6 5 5 5 Z " fill="#F9F9FD" transform="translate(0,0)"/>
<path d="M0 0 C4.55555556 0.55555556 4.55555556 0.55555556 6 2 C6.09268999 3.35094982 6.11747326 4.70667091 6.11352539 6.06079102 C6.11344986 6.92160782 6.11337433 7.78242462 6.11329651 8.66932678 C6.10813522 9.60473801 6.10297394 10.54014923 6.09765625 11.50390625 C6.0962413 12.45692123 6.09482635 13.40993622 6.09336853 14.39183044 C6.08775152 17.44875165 6.07519616 20.50560077 6.0625 23.5625 C6.05748719 25.62955624 6.05292391 27.69661362 6.04882812 29.76367188 C6.03777656 34.84247588 6.02050055 39.9212257 6 45 C8.97 44.01 11.94 43.02 15 42 C15 33.75 15 25.5 15 17 C16.32 16.67 17.64 16.34 19 16 C21.43914492 18.43914492 21.28662523 19.21446431 21.4140625 22.5703125 C21.45273438 23.46621094 21.49140625 24.36210938 21.53125 25.28515625 C21.5621875 26.22230469 21.593125 27.15945312 21.625 28.125 C21.66367188 29.06988281 21.70234375 30.01476562 21.7421875 30.98828125 C21.83661346 33.32532375 21.92218394 35.66235501 22 38 C22.58370361 37.78778809 23.16740723 37.57557617 23.76879883 37.35693359 C31.21110959 34.74589167 37.88233889 33.52940675 45.5 36.25 C49.0916941 38.76418587 50.62009886 40.86029657 52 45 C52.12234153 47.84515178 52.18512524 50.65503213 52.1875 53.5 C52.19974609 54.27214844 52.21199219 55.04429687 52.22460938 55.83984375 C52.23476991 59.7482648 52.21572048 61.67641928 50 65 C48.35 64.67 46.7 64.34 45 64 C44.98541748 63.44014404 44.97083496 62.88028809 44.95581055 62.3034668 C44.88128648 59.76411863 44.78464419 57.22607922 44.6875 54.6875 C44.66494141 53.80642578 44.64238281 52.92535156 44.61914062 52.01757812 C44.58369141 51.17001953 44.54824219 50.32246094 44.51171875 49.44921875 C44.48553467 48.66893311 44.45935059 47.88864746 44.43237305 47.0847168 C43.89803683 44.50837745 43.06266555 43.59268718 41 42 C33.70239965 40.76147215 26.8308289 42.51067407 20 45 C20.165 45.763125 20.33 46.52625 20.5 47.3125 C22.23943662 60.14084507 22.23943662 60.14084507 19 65 C17.68 65 16.36 65 15 65 C13.5192152 62.0384304 13.64685963 59.16493705 13.4375 55.875 C13.35371094 54.59367187 13.26992187 53.31234375 13.18359375 51.9921875 C13.12300781 51.00476563 13.06242187 50.01734375 13 49 C12.05125 49.495 11.1025 49.99 10.125 50.5 C7 52 7 52 5 52 C5.03029297 52.86052979 5.06058594 53.72105957 5.09179688 54.60766602 C5.20568266 57.87859703 5.31720008 61.14959266 5.42724609 64.4206543 C5.47483754 65.82172721 5.52330459 67.22277072 5.57275391 68.6237793 C5.84009705 76.21577909 6.052713 83.80536988 6.09375 91.40234375 C6.10083984 92.62300537 6.10792969 93.84366699 6.11523438 95.10131836 C6 98 6 98 5 100 C3.35 100 1.7 100 0 100 C-1.14315747 97.71368506 -1.12112732 96.45652594 -1.11352539 93.91748047 C-1.11344986 93.07675995 -1.11337433 92.23603943 -1.11329651 91.36984253 C-1.10813522 90.46146637 -1.10297394 89.55309021 -1.09765625 88.6171875 C-1.0962413 87.68778351 -1.09482635 86.75837952 -1.09336853 85.80081177 C-1.08776053 82.82550876 -1.07520668 79.85028036 -1.0625 76.875 C-1.05748603 74.86067817 -1.05292295 72.84635516 -1.04882812 70.83203125 C-1.0377885 65.88799198 -1.02051849 60.94400865 -1 56 C-1.763125 56.33 -2.52625 56.66 -3.3125 57 C-6 58 -6 58 -9 58 C-9 66.91 -9 75.82 -9 85 C-10.98 85.495 -10.98 85.495 -13 86 C-15 84 -15 84 -15.22705078 81.75341797 C-15.21657715 80.84221191 -15.20610352 79.93100586 -15.1953125 78.9921875 C-15.18886719 78.00605469 -15.18242187 77.01992187 -15.17578125 76.00390625 C-15.15902344 74.97136719 -15.14226562 73.93882812 -15.125 72.875 C-15.11597656 71.83472656 -15.10695312 70.79445313 -15.09765625 69.72265625 C-15.07403747 67.14820908 -15.04110149 64.57421788 -15 62 C-15.63776367 62.21076172 -16.27552734 62.42152344 -16.93261719 62.63867188 C-24.55935015 65.06030916 -33.43318367 67.35984605 -41.15625 64.0859375 C-44.75159019 61.35418392 -45.89027447 58.22587444 -47 54 C-47.18511822 51.22594908 -47.28060873 48.58003916 -47.25 45.8125 C-47.25773437 45.10158203 -47.26546875 44.39066406 -47.2734375 43.65820312 C-47.25929517 39.89987969 -47.13400293 38.2010044 -45 35 C-43.0625 35.375 -43.0625 35.375 -41 36 C-39.11819361 39.76361277 -39.6674978 44.60857682 -39.5703125 48.79101562 C-39.51789205 53.06158374 -39.51789205 53.06158374 -37.60327148 56.72143555 C-34.33866822 59.32486592 -29.94513317 58.4315854 -26 58 C-22.58994139 57.19491153 -19.29825603 56.17895109 -16 55 C-15.95101562 53.72382813 -15.90203125 52.44765625 -15.8515625 51.1328125 C-15.77653809 49.46351928 -15.70099012 47.79424954 -15.625 46.125 C-15.57859375 44.86236328 -15.57859375 44.86236328 -15.53125 43.57421875 C-15.49257812 42.76855469 -15.45390625 41.96289062 -15.4140625 41.1328125 C-15.3826416 40.38918457 -15.3512207 39.64555664 -15.31884766 38.87939453 C-15 37 -15 37 -13 35 C-11.68 35.33 -10.36 35.66 -9 36 C-9 41.28 -9 46.56 -9 52 C-6.69 51.01 -4.38 50.02 -2 49 C-2.00444122 48.41562164 -2.00888245 47.83124329 -2.01345825 47.22915649 C-2.05760762 41.16256142 -2.08783134 35.09601177 -2.10986328 29.02929688 C-2.11993859 26.76332751 -2.13359918 24.49737119 -2.15087891 22.23144531 C-2.17506011 18.97978499 -2.18646763 15.72829613 -2.1953125 12.4765625 C-2.20563507 11.45881744 -2.21595764 10.44107239 -2.22659302 9.39248657 C-2.22681961 7.98125015 -2.22681961 7.98125015 -2.22705078 6.54150391 C-2.231492 5.71099518 -2.23593323 4.88048645 -2.24050903 4.02481079 C-2 2 -2 2 0 0 Z " fill="#312194" transform="translate(155,84)"/>
<path d="M0 0 C95.7 0 191.4 0 290 0 C290 95.7 290 191.4 290 290 C194.3 290 98.6 290 0 290 C0 194.3 0 98.6 0 0 Z M1 1 C1 95.71 1 190.42 1 288 C95.71 288 190.42 288 288 288 C288 193.29 288 98.58 288 1 C193.29 1 98.58 1 1 1 Z " fill="#908FAE" transform="translate(5,5)"/>
<path d="M0 0 C4.41801461 3.84175183 7.168985 7.14897599 8 13 C8.09008251 15.04010393 8.13011801 17.08291462 8.125 19.125 C8.12886719 20.67574219 8.12886719 20.67574219 8.1328125 22.2578125 C8 25 8 25 7 28 C5.33388095 28.042721 3.66617115 28.04063832 2 28 C-0.20946138 25.79053862 0.66028078 18.85607293 0.57421875 15.83203125 C-0.14529319 11.03039032 -1.89403263 7.65468865 -5.75 4.625 C-10.84893924 3.20862799 -14.59106317 3.29553159 -19.25 5.625 C-22.15278203 7.89694504 -22.15278203 7.89694504 -24 11.1875 C-26 14 -26 14 -28.875 15.3125 C-32 15 -32 15 -33.4375 13.625 C-34.42623391 12.37833551 -35.40351667 11.12253045 -36.37109375 9.859375 C-39.94857296 5.77572967 -44.37516791 4.25212912 -49.625 3.4375 C-53.78321655 4.13053609 -56.44234361 5.69122316 -59 9 C-59.80068804 11.9052818 -59.79579888 14.68767308 -59.75 17.6875 C-59.79061713 25.79061713 -59.79061713 25.79061713 -62 28 C-63.32 28 -64.64 28 -66 28 C-69.30278478 22.47342785 -68.64059025 15.81817156 -67.60546875 9.6484375 C-66.20956351 4.98341226 -63.6613261 1.80382282 -59.6484375 -0.93359375 C-53.18403239 -3.53651793 -45.12897545 -3.31627573 -38.75 -0.6328125 C-35.46313643 1.31876275 -32.86197785 3.4787338 -30 6 C-29.5875 5.60167969 -29.175 5.20335938 -28.75 4.79296875 C-20.24781077 -3.00703075 -10.64286942 -5.65681925 0 0 Z " fill="#E71524" transform="translate(279,121)"/>
<path d="M0 0 C1.32 0 2.64 0 4 0 C5.52106634 3.04213267 5.37429338 6.28047572 5.5625 9.625 C5.60568359 10.33140625 5.64886719 11.0378125 5.69335938 11.765625 C5.79944751 13.51018537 5.90022889 15.25506697 6 17 C7.051875 16.360625 8.10375 15.72125 9.1875 15.0625 C15.36311834 11.57407687 22.28630868 10.94605845 29.21875 12.49609375 C33.81949125 14.01536838 36.31969897 15.8187304 39 20 C40.63405901 23.26811802 40.18453757 26.84999407 40.1875 30.4375 C40.19974609 31.21416016 40.21199219 31.99082031 40.22460938 32.79101562 C40.23474195 36.71232309 40.2225417 38.66618745 38 42 C36.35 41.67 34.7 41.34 33 41 C32.67 34.73 32.34 28.46 32 22 C25.14371265 18.57185632 21.46245418 18.09718633 14.3125 20.3125 C11.04738609 21.40860396 8.37060042 22.45708721 6 25 C5.5688378 27.8216193 5.34973926 30.2997813 5.3125 33.125 C5.08907789 40.91092211 5.08907789 40.91092211 4 42 C2.33382885 42.04063832 0.66611905 42.042721 -1 42 C-2.505201 38.98959799 -2.16282638 35.88012852 -2.16796875 32.578125 C-2.17129715 31.84051941 -2.17462555 31.10291382 -2.17805481 30.34295654 C-2.1831221 28.77942529 -2.1854632 27.21588321 -2.18530273 25.65234375 C-2.18747873 23.27325271 -2.20560692 20.89463331 -2.22460938 18.515625 C-2.22754554 16.99479325 -2.22952884 15.4739593 -2.23046875 13.953125 C-2.23765427 13.24665833 -2.24483978 12.54019165 -2.25224304 11.81231689 C-2.23254832 7.49907502 -1.57934181 4.01075358 0 0 Z " fill="#E70E1E" transform="translate(63,107)"/>
<path d="M0 0 C3.125 1.9375 3.125 1.9375 5 4 C5.375 6.6875 5.375 6.6875 5 9 C4 10 4 10 1.7265625 10.24609375 C-1.54272518 9.95101478 -2.99348223 8.98414098 -5.625 7.0625 C-9.52477799 4.24747254 -12.46520101 2.84656508 -17.3125 2.6875 C-18.05113281 2.65011719 -18.78976563 2.61273438 -19.55078125 2.57421875 C-23.27444576 3.22155437 -25.20989494 4.45096634 -28 7 C-28.8435461 9.8760799 -28.84001903 12.6429374 -28.8125 15.625 C-28.94286021 23.88572041 -28.94286021 23.88572041 -30 26 C-31.66611905 26.042721 -33.33382885 26.04063832 -35 26 C-37.29692864 23.70307136 -36.28022489 18.33119752 -36.3125 15.25 C-36.34150391 14.3425 -36.37050781 13.435 -36.40039062 12.5 C-36.44067198 8.26116152 -36.42115135 5.71150459 -34.2265625 2.00390625 C-24.5363965 -6.71724315 -10.99276956 -5.94590324 0 0 Z " fill="#E81928" transform="translate(51,123)"/>
<path d="M0 0 C1.9375 0.375 1.9375 0.375 4 1 C5.88180639 4.76361277 5.3325022 9.60857682 5.4296875 13.79101562 C5.48362327 18.05978502 5.48362327 18.05978502 7.39013672 21.72363281 C10.62705509 24.28999758 15.08188661 23.36322936 19 23 C21.40044355 22.47009076 23.65328359 21.75094925 26 21 C27.32 21 28.64 21 30 21 C30 22.65 30 24.3 30 26 C22.18628878 30.03288321 14.74469804 31.2446043 6 30 C2.23184916 28.39580535 0.47525451 26.12707928 -1.125 22.33203125 C-2.14504584 18.44766025 -2.29406438 14.79665448 -2.25 10.8125 C-2.25773437 10.10158203 -2.26546875 9.39066406 -2.2734375 8.65820312 C-2.25929517 4.89987969 -2.13400293 3.2010044 0 0 Z " fill="#EA0B1A" transform="translate(110,119)"/>
<path d="M0 0 C3.5916941 2.51418587 5.12009886 4.61029657 6.5 8.75 C6.62234153 11.59515178 6.68512524 14.40503213 6.6875 17.25 C6.69974609 18.02214844 6.71199219 18.79429687 6.72460938 19.58984375 C6.73476991 23.4982648 6.71572048 25.42641928 4.5 28.75 C2.85 28.42 1.2 28.09 -0.5 27.75 C-0.51458252 27.19014404 -0.52916504 26.63028809 -0.54418945 26.0534668 C-0.61871352 23.51411863 -0.71535581 20.97607922 -0.8125 18.4375 C-0.83505859 17.55642578 -0.85761719 16.67535156 -0.88085938 15.76757812 C-0.9340332 14.49624023 -0.9340332 14.49624023 -0.98828125 13.19921875 C-1.01446533 12.41893311 -1.04064941 11.63864746 -1.06762695 10.8347168 C-1.60196317 8.25837745 -2.43733445 7.34268718 -4.5 5.75 C-11.79760035 4.51147215 -18.6691711 6.26067407 -25.5 8.75 C-25.5 6.77 -25.5 4.79 -25.5 2.75 C-16.97069254 -0.94548331 -9.03844741 -3.22801693 0 0 Z " fill="#EE0919" transform="translate(200.5,120.25)"/>
<path d="M0 0 C4.55555556 0.55555556 4.55555556 0.55555556 6 2 C6.07390411 3.37174276 6.07824652 4.74734097 6.0534668 6.12084961 C6.0398259 6.99523178 6.026185 7.86961395 6.01213074 8.77049255 C5.99136978 9.72150345 5.97060883 10.67251434 5.94921875 11.65234375 C5.9303511 12.62281143 5.91148346 13.59327911 5.89204407 14.59315491 C5.8500806 16.65029487 5.80533535 18.70737963 5.75805664 20.7644043 C5.68788252 23.92029721 5.63354823 27.07620737 5.58007812 30.23242188 C5.53743013 32.22658352 5.49384167 34.22072532 5.44921875 36.21484375 C5.43453049 37.16383041 5.41984222 38.11281708 5.40470886 39.09056091 C5.38161148 39.96809525 5.3585141 40.84562958 5.3347168 41.74975586 C5.31837692 42.5239537 5.30203705 43.29815155 5.28520203 44.09580994 C5 46 5 46 3 48 C1.68 48 0.36 48 -1 48 C-2.09068641 20.85467182 -2.09068641 20.85467182 -2.1875 9.375 C-2.20039063 8.64297363 -2.21328125 7.91094727 -2.2265625 7.15673828 C-2.22990909 5.43617056 -2.12561142 3.71597968 -2 2 C-1.34 1.34 -0.68 0.68 0 0 Z " fill="#221EA5" transform="translate(155,84)"/>
<path d="M0 0 C0.14586411 3.99768528 0.28806438 7.99548458 0.42724609 11.9934082 C0.49785614 14.0015296 0.57115168 16.00955602 0.64453125 18.01757812 C0.87906845 24.80240441 1.05713007 31.58236512 1.09375 38.37109375 C1.10083984 39.59626709 1.10792969 40.82144043 1.11523438 42.08374023 C1 45 1 45 0 47 C-1.65 47 -3.3 47 -5 47 C-6.1415622 44.7168756 -6.15334372 43.36520695 -6.20532227 40.82568359 C-6.22526749 39.96494232 -6.24521271 39.10420105 -6.26576233 38.21737671 C-6.29083107 36.8220018 -6.29083107 36.8220018 -6.31640625 35.3984375 C-6.33718735 34.44683746 -6.35796844 33.49523743 -6.37937927 32.51480103 C-6.44488133 29.46827568 -6.5037628 26.42166257 -6.5625 23.375 C-6.60568459 21.31249084 -6.64929886 19.24999063 -6.69335938 17.1875 C-6.8005634 12.12509046 -6.90182902 7.06259245 -7 2 C-2.25 0 -2.25 0 0 0 Z " fill="#322BA3" transform="translate(160,137)"/>
<path d="M0 0 C3.69230769 0.69230769 3.69230769 0.69230769 5 2 C5.10311197 3.36529514 5.13848916 4.73581393 5.14526367 6.10498047 C5.15164352 6.97613495 5.15802338 7.84728943 5.16459656 8.74484253 C5.16570938 9.69271637 5.1668222 10.64059021 5.16796875 11.6171875 C5.17129715 12.58528351 5.17462555 13.55337952 5.17805481 14.55081177 C5.18312878 16.60369388 5.18546299 18.65658428 5.18530273 20.70947266 C5.18748586 23.85463044 5.20562738 26.99943576 5.22460938 30.14453125 C5.22754383 32.13541546 5.22952828 34.12630135 5.23046875 36.1171875 C5.23765427 37.06101288 5.24483978 38.00483826 5.25224304 38.9772644 C5.24916641 39.85472321 5.24608978 40.73218201 5.24291992 41.63623047 C5.24434494 42.4082077 5.24576996 43.18018494 5.24723816 43.97555542 C5 46 5 46 3 49 C1.68 49 0.36 49 -1 49 C-2.44434957 46.11130086 -2.11005437 43.6232021 -2.08984375 40.3984375 C-2.08605209 39.73451996 -2.08226044 39.07060242 -2.07835388 38.38656616 C-2.02427913 31.48166024 -1.85070952 24.58001782 -1.62768555 17.67871094 C-1.56099548 15.57759908 -1.50213323 13.47634663 -1.44335938 11.375 C-1.40151111 10.03383944 -1.35921181 8.69269285 -1.31640625 7.3515625 C-1.27974854 6.15354004 -1.24309082 4.95551758 -1.20532227 3.72119141 C-1 1 -1 1 0 0 Z " fill="#2D25A3" transform="translate(171,100)"/>
<path d="M0 0 C4.62450525 5.31818104 5.14214312 10.28489432 5.125 17.125 C5.12886719 18.67574219 5.12886719 18.67574219 5.1328125 20.2578125 C5 23 5 23 4 26 C2.33388095 26.042721 0.66617115 26.04063832 -1 26 C-3.20946138 23.79053862 -2.33971922 16.85607293 -2.42578125 13.83203125 C-3.14529319 9.03039032 -4.89403263 5.65468865 -8.75 2.625 C-14.10247779 1.13820061 -19.63714783 1.92742957 -25 3 C-24.375 0.625 -24.375 0.625 -23 -2 C-16.04549891 -5.64283391 -6.77336674 -3.45335037 0 0 Z " fill="#ED091A" transform="translate(282,123)"/>
<path d="M0 0 C10.67234043 -0.61276596 10.67234043 -0.61276596 15.25 1.5 C17.36894023 4.52705747 17.74673081 6.446483 17.4609375 10.09375 C17 12 17 12 15.25 14.5 C10.27152376 16.79775826 5.39530594 16.30977833 0 16 C0.66 15.67 1.32 15.34 2 15 C2 10.38 2 5.76 2 1 C1.34 0.67 0.68 0.34 0 0 Z " fill="#2F2B8E" transform="translate(122,192)"/>
<path d="M0 0 C3.5916941 2.51418587 5.12009886 4.61029657 6.5 8.75 C6.57973476 10.08525717 6.60771338 11.42412083 6.59765625 12.76171875 C6.59443359 13.51904297 6.59121094 14.27636719 6.58789062 15.05664062 C6.57532227 16.23516602 6.57532227 16.23516602 6.5625 17.4375 C6.55798828 18.23478516 6.55347656 19.03207031 6.54882812 19.85351562 C6.5370585 21.81904257 6.51912348 23.78453085 6.5 25.75 C5.84 26.08 5.18 26.41 4.5 26.75 C4.46261719 25.43644531 4.42523438 24.12289062 4.38671875 22.76953125 C4.32104343 21.03382636 4.25459663 19.29815053 4.1875 17.5625 C4.16494141 16.69818359 4.14238281 15.83386719 4.11914062 14.94335938 C3.91666948 10.13927124 3.68301254 6.60634212 0.5 2.75 C-4.17489456 0.46691196 -8.4099505 0.49118392 -13.5 0.75 C-13.83 1.08 -14.16 1.41 -14.5 1.75 C-10.87 2.08 -7.24 2.41 -3.5 2.75 C-3.17 3.74 -2.84 4.73 -2.5 5.75 C-3.32242188 5.71519531 -4.14484375 5.68039063 -4.9921875 5.64453125 C-12.41499135 5.46453254 -18.54736897 6.11333631 -25.5 8.75 C-25.5 6.77 -25.5 4.79 -25.5 2.75 C-16.97069254 -0.94548331 -9.03844741 -3.22801693 0 0 Z " fill="#DD1322" transform="translate(200.5,120.25)"/>
<path d="M0 0 C0 1.98 0 3.96 0 6 C-3.43296095 7.67613728 -6.87206883 9.33925697 -10.3125 11 C-11.77719727 11.71542969 -11.77719727 11.71542969 -13.27148438 12.4453125 C-14.20927734 12.89648438 -15.14707031 13.34765625 -16.11328125 13.8125 C-17.40939331 14.44091797 -17.40939331 14.44091797 -18.73168945 15.08203125 C-21 16 -21 16 -24 16 C-24 14.02 -24 12.04 -24 10 C-19.05818252 7.48574198 -14.11828444 5.14037349 -9 3 C-8.36578125 2.71898437 -7.7315625 2.43796875 -7.078125 2.1484375 C-2.21904206 0 -2.21904206 0 0 0 Z " fill="#D81630" transform="translate(170,126)"/>
<path d="M0 0 C1.77007714 -0.08114106 3.54122098 -0.13925505 5.3125 -0.1875 C6.29863281 -0.22230469 7.28476562 -0.25710937 8.30078125 -0.29296875 C11 0 11 0 12.85546875 1.51171875 C13.23316406 2.00285156 13.61085938 2.49398437 14 3 C13.62875 3.886875 13.2575 4.77375 12.875 5.6875 C11.88171075 9.44780931 12.14749897 10.66549814 14 14 C14.66 14.66 15.32 15.32 16 16 C14.02 16 12.04 16 10 16 C9.5978125 14.2984375 9.5978125 14.2984375 9.1875 12.5625 C8.795625 11.386875 8.40375 10.21125 8 9 C7.01 8.67 6.02 8.34 5 8 C5.66 10.64 6.32 13.28 7 16 C4.69 16 2.38 16 0 16 C0.66 15.67 1.32 15.34 2 15 C2 10.38 2 5.76 2 1 C1.34 0.67 0.68 0.34 0 0 Z " fill="#2A2589" transform="translate(15,192)"/>
<path d="M0 0 C17.93901078 -0.45351432 17.93901078 -0.45351432 25 3.8125 C27 6 27 6 27.375 8.6875 C27 11 27 11 26 12 C23.36262008 12.46541999 21.60822301 12.34016947 19.25390625 11.0234375 C16.52817938 9.1124978 14.30387091 7.39069117 12.25 4.75 C8.43413188 1.78210257 3.70556145 2.16226074 -1 2 C-0.67 1.34 -0.34 0.68 0 0 Z " fill="#EB0D1C" transform="translate(29,121)"/>
<path d="M0 0 C0.33 0 0.66 0 1 0 C1.33 6.27 1.66 12.54 2 19 C4.5654594 16.4345406 4.54046087 14.52313332 5 11 C5.33 11 5.66 11 6 11 C6 19.58 6 28.16 6 37 C4.02 37.495 4.02 37.495 2 38 C0 36 0 36 -0.22705078 33.75341797 C-0.21657715 32.84221191 -0.20610352 31.93100586 -0.1953125 30.9921875 C-0.18886719 30.00605469 -0.18242187 29.01992187 -0.17578125 28.00390625 C-0.15902344 26.97136719 -0.14226562 25.93882812 -0.125 24.875 C-0.11597656 23.83472656 -0.10695312 22.79445312 -0.09765625 21.72265625 C-0.07403747 19.14820908 -0.04110149 16.57421788 0 14 C-0.66 13.67 -1.32 13.34 -2 13 C-1.34 13 -0.68 13 0 13 C-0.185625 12.154375 -0.37125 11.30875 -0.5625 10.4375 C-1.03529632 6.7226718 -0.66064631 3.67025727 0 0 Z " fill="#2823A4" transform="translate(140,132)"/>
<path d="M0 0 C1.423125 -0.061875 2.84625 -0.12375 4.3125 -0.1875 C5.51326172 -0.23970703 5.51326172 -0.23970703 6.73828125 -0.29296875 C9 0 9 0 10.76953125 1.35546875 C12 3 12 3 12.375 5.5 C12 8 12 8 10.8125 9.8125 C8.44017475 11.36678206 6.77958655 11.22537188 4 11 C4 12.65 4 14.3 4 16 C4.66 16.33 5.32 16.66 6 17 C4.02 17 2.04 17 0 17 C0 11.39 0 5.78 0 0 Z " fill="#55529D" transform="translate(275,197)"/>
<path d="M0 0 C0.33 0 0.66 0 1 0 C1.03738281 1.19238281 1.07476562 2.38476562 1.11328125 3.61328125 C1.17894032 5.179719 1.24538768 6.74612384 1.3125 8.3125 C1.33505859 9.09818359 1.35761719 9.88386719 1.38085938 10.69335938 C1.41630859 11.45068359 1.45175781 12.20800781 1.48828125 12.98828125 C1.51446533 13.68477783 1.54064941 14.38127441 1.56762695 15.09887695 C2.12204535 17.53662743 3.05939082 18.46460534 5 20 C10.93686921 20.9652602 16.36980249 19.8016632 22 18 C23.32 18 24.64 18 26 18 C26 19.65 26 21.3 26 23 C18.26267436 26.9934584 10.6717854 28.25171415 2 27 C0.08984375 25.47265625 0.08984375 25.47265625 -1 24 C-0.15179688 24.16371094 0.69640625 24.32742187 1.5703125 24.49609375 C5.0645531 25.00948445 8.34627574 25.09850739 11.875 25.0625 C13.02742188 25.05347656 14.17984375 25.04445312 15.3671875 25.03515625 C16.67042969 25.01775391 16.67042969 25.01775391 18 25 C18.33 24.01 18.66 23.02 19 22 C17.44539063 22.05220703 17.44539063 22.05220703 15.859375 22.10546875 C14.48959958 22.13361482 13.11980659 22.16091411 11.75 22.1875 C11.06808594 22.21263672 10.38617188 22.23777344 9.68359375 22.26367188 C6.7532618 22.30634661 4.28963484 22.10632165 1.53125 21.09375 C-1.06881487 17.53855926 -0.41226868 13.57829387 -0.25 9.3125 C-0.23195313 8.41982422 -0.21390625 7.52714844 -0.1953125 6.60742188 C-0.14817759 4.40386496 -0.08240657 2.20247399 0 0 Z " fill="#DD3441" transform="translate(114,122)"/>
<path d="M0 0 C1.65 0 3.3 0 5 0 C5.33 1.98 5.66 3.96 6 6 C7.65 6.33 9.3 6.66 11 7 C11 9.97 11 12.94 11 16 C11.66 16.33 12.32 16.66 13 17 C11.02 17 9.04 17 7 17 C7.33 14.03 7.66 11.06 8 8 C7.01 8.495 7.01 8.495 6 9 C6 11.64 6 14.28 6 17 C4.02 17 2.04 17 0 17 C0.33 16.34 0.66 15.68 1 15 C1.22950319 12.795636 1.41075933 10.58607827 1.5625 8.375 C1.64628906 7.18648437 1.73007812 5.99796875 1.81640625 4.7734375 C1.87699219 3.85820312 1.93757813 2.94296875 2 2 C1.34 2 0.68 2 0 2 C0 1.34 0 0.68 0 0 Z " fill="#6664A7" transform="translate(34,191)"/>
<path d="M0 0 C2.9375 0.875 2.9375 0.875 4.9375 3.875 C4.75 6.4375 4.75 6.4375 3.9375 8.875 C0.9375 10.875 0.9375 10.875 -2.1875 10.5625 C-5.0625 9.875 -5.0625 9.875 -6.0625 8.875 C-6.51628151 3.65651261 -6.51628151 3.65651261 -4.9375 0.9375 C-3.0625 -0.125 -3.0625 -0.125 0 0 Z " fill="#4F4C98" transform="translate(251.0625,197.125)"/>
<path d="M0 0 C5 1 5 1 7 3 C7.265625 5.09375 7.265625 5.09375 7.25 7.5 C7.25515625 8.2940625 7.2603125 9.088125 7.265625 9.90625 C7 12 7 12 5 14 C3.35 14 1.7 14 0 14 C0 9.38 0 4.76 0 0 Z " fill="#F7F6FD" transform="translate(128,193)"/>
<path d="M0 0 C1.65 0 3.3 0 5 0 C5.33 1.98 5.66 3.96 6 6 C6.9590625 6.2165625 6.9590625 6.2165625 7.9375 6.4375 C10 7 10 7 11 8 C11.23192865 9.51469448 11.41215238 11.03754562 11.5625 12.5625 C11.64628906 13.38878906 11.73007813 14.21507812 11.81640625 15.06640625 C11.87699219 15.70449219 11.93757813 16.34257812 12 17 C10.35 17 8.7 17 7 17 C7.33 14.03 7.66 11.06 8 8 C7.01 8.33 6.02 8.66 5 9 C4.67 11.31 4.34 13.62 4 16 C3.34 16 2.68 16 2 16 C2 11.38 2 6.76 2 2 C1.34 2 0.68 2 0 2 C0 1.34 0 0.68 0 0 Z " fill="#605DA6" transform="translate(75,191)"/>
<path d="M0 0 C0.9075 0.00257813 1.815 0.00515625 2.75 0.0078125 C4.11125 0.00394531 4.11125 0.00394531 5.5 0 C7.75 0.1328125 7.75 0.1328125 8.75 1.1328125 C8.98287008 2.81465198 9.16264166 4.5040541 9.3125 6.1953125 C9.39628906 7.11441406 9.48007813 8.03351563 9.56640625 8.98046875 C9.62699219 9.69074219 9.68757813 10.40101563 9.75 11.1328125 C8.1 11.1328125 6.45 11.1328125 4.75 11.1328125 C5.08 8.1628125 5.41 5.1928125 5.75 2.1328125 C4.76 2.1328125 3.77 2.1328125 2.75 2.1328125 C3.08 5.1028125 3.41 8.0728125 3.75 11.1328125 C2.1 11.1328125 0.45 11.1328125 -1.25 11.1328125 C-0.92 8.1628125 -0.59 5.1928125 -0.25 2.1328125 C-1.24 1.8028125 -2.23 1.4728125 -3.25 1.1328125 C-2.25 0.1328125 -2.25 0.1328125 0 0 Z " fill="#58559D" transform="translate(99.25,196.8671875)"/>
<path d="M0 0 C3.5916941 2.51418587 5.12009886 4.61029657 6.5 8.75 C6.57973476 10.08525717 6.60771338 11.42412083 6.59765625 12.76171875 C6.59443359 13.51904297 6.59121094 14.27636719 6.58789062 15.05664062 C6.57951172 15.84232422 6.57113281 16.62800781 6.5625 17.4375 C6.55798828 18.23478516 6.55347656 19.03207031 6.54882812 19.85351562 C6.5370585 21.81904257 6.51912348 23.78453085 6.5 25.75 C5.84 26.08 5.18 26.41 4.5 26.75 C4.46261719 25.43644531 4.42523438 24.12289062 4.38671875 22.76953125 C4.32104343 21.03382636 4.25459663 19.29815053 4.1875 17.5625 C4.16494141 16.69818359 4.14238281 15.83386719 4.11914062 14.94335938 C3.91666948 10.13927124 3.68301254 6.60634212 0.5 2.75 C-6.18102187 -0.51282463 -13.42052456 0.57008743 -20.5 1.75 C-14.33399217 -2.36067188 -6.89670157 -2.4631077 0 0 Z " fill="#D73B46" transform="translate(200.5,120.25)"/>
<path d="M0 0 C2.375 -0.125 2.375 -0.125 5 0 C8.15771423 3.15771423 7.62506773 6.62579022 8 11 C5.03 11 2.06 11 -1 11 C-1.33 9.68 -1.66 8.36 -2 7 C-0.35 6.01 1.3 5.02 3 4 C2.67 3.34 2.34 2.68 2 2 C1.01 2.33 0.02 2.66 -1 3 C-0.67 2.01 -0.34 1.02 0 0 Z " fill="#4F4D9A" transform="translate(146,197)"/>
<path d="M0 0 C0.515625 0.2475 1.03125 0.495 1.5625 0.75 C-0.9125 2.235 -0.9125 2.235 -3.4375 3.75 C-2.798125 3.585 -2.15875 3.42 -1.5 3.25 C2.53836652 2.59067485 6.48057258 2.66996221 10.5625 2.75 C10.5625 3.41 10.5625 4.07 10.5625 4.75 C9.77746094 4.85957031 8.99242188 4.96914062 8.18359375 5.08203125 C2.18050285 5.9880192 -2.99903426 7.03076713 -8.4375 9.75 C-8.7675 7.77 -9.0975 5.79 -9.4375 3.75 C-3.0375 -0.31153846 -3.0375 -0.31153846 0 0 Z " fill="#E01825" transform="translate(78.4375,120.25)"/>
<path d="M0 0 C0.99 0 1.98 0 3 0 C3.05407567 2.58361518 3.093707 5.16609255 3.125 7.75 C3.14175781 8.47960937 3.15851563 9.20921875 3.17578125 9.9609375 C3.21072239 13.8044624 3.17499684 16.74606772 1 20 C1 19.01 1 18.02 1 17 C0.34 17 -0.32 17 -1 17 C-1.02684679 14.35409986 -1.04676357 11.70846904 -1.0625 9.0625 C-1.07087891 8.30775391 -1.07925781 7.55300781 -1.08789062 6.77539062 C-1.09652441 4.85005687 -1.05224333 2.92464419 -1 1 C-0.67 0.67 -0.34 0.34 0 0 Z " fill="#231DA7" transform="translate(142,121)"/>
<path d="M0 0 C0 0.33 0 0.66 0 1 C-1.2065625 1.185625 -1.2065625 1.185625 -2.4375 1.375 C-3.283125 1.58125 -4.12875 1.7875 -5 2 C-6.26237731 4.52475462 -6.09856404 6.31200466 -6.0625 9.125 C-6.04896484 10.49011719 -6.04896484 10.49011719 -6.03515625 11.8828125 C-6.02355469 12.58148438 -6.01195312 13.28015625 -6 14 C-3.03 14.495 -3.03 14.495 0 15 C0 15.33 0 15.66 0 16 C-3.61305558 16.33609819 -5.62603831 16.19511045 -8.875 14.5 C-11.46043632 11.45831021 -11.69010681 9.79992767 -11.4140625 5.90625 C-11 4 -11 4 -9.4375 1.5 C-6.17971981 -0.50478781 -3.75217167 -0.28862859 0 0 Z " fill="#272391" transform="translate(222,192)"/>
<path d="M0 0 C0 1.98 0 3.96 0 6 C-1.24176695 6.70226141 -2.49385599 7.38629109 -3.75 8.0625 C-4.44609375 8.44535156 -5.1421875 8.82820312 -5.859375 9.22265625 C-8.36140628 10.1312406 -9.5332355 9.88336837 -12 9 C-11.01 9 -10.02 9 -9 9 C-9.33 8.01 -9.66 7.02 -10 6 C-10.66 5.67 -11.32 5.34 -12 5 C-10.37750059 4.16180842 -8.75191503 3.3295884 -7.125 2.5 C-6.22007812 2.0359375 -5.31515625 1.571875 -4.3828125 1.09375 C-2 0 -2 0 0 0 Z " fill="#E11628" transform="translate(170,126)"/>
<path d="M0 0 C4.55555556 0.55555556 4.55555556 0.55555556 6 2 C6.09969841 3.74765452 6.12968045 5.4995103 6.125 7.25 C6.12757813 8.20390625 6.13015625 9.1578125 6.1328125 10.140625 C6.00628725 12.86463928 5.61005381 15.34675009 5 18 C4.67 18 4.34 18 4 18 C4 13.05 4 8.1 4 3 C2.68 3 1.36 3 0 3 C-0.33 8.61 -0.66 14.22 -1 20 C-1.33 20 -1.66 20 -2 20 C-2.05379226 17.04142591 -2.09357093 14.08382279 -2.125 11.125 C-2.14175781 10.28324219 -2.15851563 9.44148438 -2.17578125 8.57421875 C-2.18222656 7.76855469 -2.18867188 6.96289062 -2.1953125 6.1328125 C-2.21102295 5.01737061 -2.21102295 5.01737061 -2.22705078 3.87939453 C-2 2 -2 2 0 0 Z " fill="#5856A8" transform="translate(155,84)"/>
<path d="M0 0 C0.33 0 0.66 0 1 0 C2.20320831 5.56483842 2.52515593 11.33009615 2 17 C1.34 17.99 0.68 18.98 0 20 C-1.32 20 -2.64 20 -4 20 C-5.53266582 16.93466836 -5.10276471 13.73245728 -5.0625 10.375 C-5.05798828 9.66859375 -5.05347656 8.9621875 -5.04882812 8.234375 C-5.03703875 6.48954725 -5.01910324 4.744763 -5 3 C-4.67 3 -4.34 3 -4 3 C-3.67 7.95 -3.34 12.9 -3 18 C-2.34 18 -1.68 18 -1 18 C-0.505 9.09 -0.505 9.09 0 0 Z " fill="#3F3A9E" transform="translate(174,129)"/>
<path d="M0 0 C1.32 0 2.64 0 4 0 C4.71033431 5.52967941 5.30267176 10.49983036 4 16 C4.66 16.33 5.32 16.66 6 17 C4.02 17 2.04 17 0 17 C0 11.39 0 5.78 0 0 Z " fill="#4C499C" transform="translate(275,197)"/>
<path d="M0 0 C0.33 0 0.66 0 1 0 C1 6.6 1 13.2 1 20 C1.99 20 2.98 20 4 20 C4 18.35 4 16.7 4 15 C4.33 15 4.66 15 5 15 C5 17.31 5 19.62 5 22 C3.33388095 22.042721 1.66617115 22.04063832 0 22 C-1.58937556 20.41062444 -1.12981143 18.76100154 -1.1328125 16.5625 C-1.13410156 15.66789063 -1.13539062 14.77328125 -1.13671875 13.8515625 C-1.13091797 12.44003906 -1.13091797 12.44003906 -1.125 11 C-1.12886719 10.05898437 -1.13273438 9.11796875 -1.13671875 8.1484375 C-1.13542969 7.25382813 -1.13414063 6.35921875 -1.1328125 5.4375 C-1.13112061 4.19806641 -1.13112061 4.19806641 -1.12939453 2.93359375 C-1 1 -1 1 0 0 Z " fill="#D31B28" transform="translate(16,127)"/>
<path d="M0 0 C1.98 0 3.96 0 6 0 C6.144375 0.9075 6.28875 1.815 6.4375 2.75 C6.86769327 5.83606626 6.86769327 5.83606626 7.75 8 C8.16287007 11.30296057 6.75207179 13.28126791 5 16 C2.8125 16.875 2.8125 16.875 1 17 C0.67 16.01 0.34 15.02 0 14 C1.32 14 2.64 14 4 14 C4.56561146 8.34388537 2.71391278 4.77357872 0 0 Z " fill="#484594" transform="translate(48,197)"/>
<path d="M0 0 C3.96 0 7.92 0 12 0 C11.34 0.66 10.68 1.32 10 2 C8.68 1.67 7.36 1.34 6 1 C6 5.29 6 9.58 6 14 C5.67 14 5.34 14 5 14 C4.67 12.35 4.34 10.7 4 9 C3.34 10.32 2.68 11.64 2 13 C2 9.04 2 5.08 2 1 C1.34 0.67 0.68 0.34 0 0 Z " fill="#524EA4" transform="translate(122,192)"/>
<path d="M0 0 C0.78246094 -0.01417969 1.56492187 -0.02835937 2.37109375 -0.04296875 C4.5625 0.1875 4.5625 0.1875 7.5625 2.1875 C6.89863281 2.15269531 6.23476563 2.11789063 5.55078125 2.08203125 C-1.43201638 1.84871968 -1.43201638 1.84871968 -7.4375 5.1875 C-10.68933271 8.43933271 -9.87435064 13.1010643 -10.00390625 17.50976562 C-10.08313966 19.40619999 -10.25339782 21.29836061 -10.4375 23.1875 C-11.0975 23.5175 -11.7575 23.8475 -12.4375 24.1875 C-12.41464511 21.10253825 -12.33727619 18.02125874 -12.25 14.9375 C-12.24419922 14.06480469 -12.23839844 13.19210938 -12.23242188 12.29296875 C-12.0089508 5.78747732 -12.0089508 5.78747732 -9.01171875 2.640625 C-5.65769439 0.74730624 -3.83403114 0.03147809 0 0 Z " fill="#FEE0E4" transform="translate(33.4375,124.8125)"/>
<path d="M0 0 C0.33 0 0.66 0 1 0 C1 11.55 1 23.1 1 35 C2.65 35.33 4.3 35.66 6 36 C5.67 36.66 5.34 37.32 5 38 C1.125 37.125 1.125 37.125 0 36 C-0.08700342 34.36527118 -0.10701063 32.72685945 -0.09765625 31.08984375 C-0.09443359 30.10048828 -0.09121094 29.11113281 -0.08789062 28.09179688 C-0.07951172 27.05087891 -0.07113281 26.00996094 -0.0625 24.9375 C-0.05798828 23.89271484 -0.05347656 22.84792969 -0.04882812 21.77148438 C-0.03699913 19.1809334 -0.02051689 16.59049441 0 14 C-0.66 13.67 -1.32 13.34 -2 13 C-1.34 13 -0.68 13 0 13 C-0.185625 12.154375 -0.37125 11.30875 -0.5625 10.4375 C-1.03529632 6.7226718 -0.66064631 3.67025727 0 0 Z " fill="#674FA5" transform="translate(140,132)"/>
<path d="M0 0 C1.77007714 -0.08114106 3.54122098 -0.13925505 5.3125 -0.1875 C6.29863281 -0.22230469 7.28476562 -0.25710937 8.30078125 -0.29296875 C11 0 11 0 12.85546875 1.51171875 C13.23316406 2.00285156 13.61085938 2.49398437 14 3 C13.67 3.99 13.34 4.98 13 6 C12.34 5.01 11.68 4.02 11 3 C10.3503125 3.99 10.3503125 3.99 9.6875 5 C9.130625 5.66 8.57375 6.32 8 7 C7.01 7 6.02 7 5 7 C5 5.02 5 3.04 5 1 C3.35 1 1.7 1 0 1 C0 0.67 0 0.34 0 0 Z " fill="#4B4894" transform="translate(15,192)"/>
<path d="M0 0 C0.33 0.99 0.66 1.98 1 3 C1.99 3 2.98 3 4 3 C4 3.66 4 4.32 4 5 C3.01 5 2.02 5 1 5 C1 7.64 1 10.28 1 13 C1.66 13.33 2.32 13.66 3 14 C1.35 13.67 -0.3 13.34 -2 13 C-2 10.36 -2 7.72 -2 5 C-2.66 4.67 -3.32 4.34 -4 4 C-2.68 2.68 -1.36 1.36 0 0 Z " fill="#4D4A97" transform="translate(67,194)"/>
<path d="M0 0 C0.33 0 0.66 0 1 0 C0.95875 1.051875 0.9175 2.10375 0.875 3.1875 C1.02786228 7.84979946 1.68518684 10.68518684 5 14 C3.02 14 1.04 14 -1 14 C-1.41846009 12.42249576 -1.80896389 10.83755752 -2.1875 9.25 C-2.40792969 8.36828125 -2.62835937 7.4865625 -2.85546875 6.578125 C-3 4 -3 4 -1.61328125 1.671875 C-0.81470703 0.84429687 -0.81470703 0.84429687 0 0 Z " fill="#3B379A" transform="translate(26,194)"/>
<path d="M0 0 C0.99 0 1.98 0 3 0 C3.66 5.28 4.32 10.56 5 16 C3.02 16 1.04 16 -1 16 C-0.67 15.34 -0.34 14.68 0 14 C0.07116382 11.62597499 0.08409085 9.24999323 0.0625 6.875 C0.05347656 5.59367188 0.04445312 4.31234375 0.03515625 2.9921875 C0.02355469 2.00476563 0.01195312 1.01734375 0 0 Z " fill="#3B3897" transform="translate(35,192)"/>
<path d="M0 0 C1.1446875 0.3403125 1.1446875 0.3403125 2.3125 0.6875 C2.6425 2.0075 2.9725 3.3275 3.3125 4.6875 C2.3225 4.3575 1.3325 4.0275 0.3125 3.6875 C0.3125 3.0275 0.3125 2.3675 0.3125 1.6875 C-0.3475 1.6875 -1.0075 1.6875 -1.6875 1.6875 C-2.09499675 5.94481568 -2.09499675 5.94481568 -0.1875 9.5625 C0.3075 9.93375 0.8025 10.305 1.3125 10.6875 C-1.0625 10.8125 -1.0625 10.8125 -3.6875 10.6875 C-5.6875 8.6875 -5.6875 8.6875 -6 5.75 C-5.6875 2.6875 -5.6875 2.6875 -4.5 0.75 C-2.6875 -0.3125 -2.6875 -0.3125 0 0 Z " fill="#413E8E" transform="translate(193.6875,197.3125)"/>
<path d="M0 0 C1.32 0 2.64 0 4 0 C4.33449533 1.64559756 4.66756499 3.29148498 5 4.9375 C5.2784375 6.31228516 5.2784375 6.31228516 5.5625 7.71484375 C6 10 6 10 6 11 C4.02 11 2.04 11 0 11 C0 7.37 0 3.74 0 0 Z " fill="#615EAA" transform="translate(232,197)"/>
<path d="M0 0 C1.1446875 0.3403125 1.1446875 0.3403125 2.3125 0.6875 C2.6425 1.6775 2.9725 2.6675 3.3125 3.6875 C2.3225 3.3575 1.3325 3.0275 0.3125 2.6875 C0.3125 2.0275 0.3125 1.3675 0.3125 0.6875 C-0.6775 1.1825 -0.6775 1.1825 -1.6875 1.6875 C-1.6875 3.6675 -1.6875 5.6475 -1.6875 7.6875 C-0.3675 8.3475 0.9525 9.0075 2.3125 9.6875 C0 10.375 0 10.375 -2.6875 10.6875 C-4.5 9.5625 -4.5 9.5625 -5.6875 7.6875 C-6.12451584 4.77406107 -6.08532069 3.31563794 -4.5 0.8125 C-2.6875 -0.3125 -2.6875 -0.3125 0 0 Z " fill="#46438F" transform="translate(179.6875,197.3125)"/>
<path d="M0 0 C2.96097394 2.44602195 3.44521501 4.25388041 4 8 C4.09008251 10.04010393 4.13011801 12.08291462 4.125 14.125 C4.12757813 15.15882813 4.13015625 16.19265625 4.1328125 17.2578125 C4 20 4 20 3 23 C1.35 23 -0.3 23 -2 23 C-0.68 22.67 0.64 22.34 2 22 C1.85856168 19.2705414 1.71200471 16.54151877 1.5625 13.8125 C1.52318359 13.04357422 1.48386719 12.27464844 1.44335938 11.48242188 C1.22492966 7.56748925 0.91307892 3.82879312 0 0 Z " fill="#D12430" transform="translate(283,126)"/>
<path d="M0 0 C0.33 0.66 0.66 1.32 1 2 C0.55527344 3.04220703 0.55527344 3.04220703 0.1015625 4.10546875 C-1.32865572 7.86359534 -1.45393724 11.3245993 -1.625 15.3125 C-1.66367188 16.05306641 -1.70234375 16.79363281 -1.7421875 17.55664062 C-1.83581705 19.37071309 -1.91896851 21.18532116 -2 23 C-4.64242277 20.35757723 -4.29852198 19.05587947 -4.3125 15.375 C-4.23792145 10.2104355 -3.90688639 3.90688639 0 0 Z " fill="#DB3E49" transform="translate(215,124)"/>
<path d="M0 0 C1.32 0 2.64 0 4 0 C5.28317892 3.84953676 5.06643637 6.94738135 5 11 C3.35 11 1.7 11 0 11 C0 7.37 0 3.74 0 0 Z " fill="#474496" transform="translate(158,197)"/>
<path d="M0 0 C1.32 0 2.64 0 4 0 C5.28317892 3.84953676 5.06643637 6.94738135 5 11 C3.35 11 1.7 11 0 11 C0 7.37 0 3.74 0 0 Z " fill="#4D4999" transform="translate(91,197)"/>
<path d="M0 0 C3.69230769 0.69230769 3.69230769 0.69230769 5 2 C5.23192865 3.51469448 5.41215238 5.03754562 5.5625 6.5625 C5.64628906 7.38878906 5.73007813 8.21507812 5.81640625 9.06640625 C5.87699219 9.70449219 5.93757812 10.34257812 6 11 C4.35 11 2.7 11 1 11 C1.33 8.03 1.66 5.06 2 2 C1.01 1.67 0.02 1.34 -1 1 C-0.67 0.67 -0.34 0.34 0 0 Z " fill="#4D4B98" transform="translate(164,197)"/>
<path d="M0 0 C0.33 0 0.66 0 1 0 C1.05383848 2.45862401 1.09359038 4.9160755 1.125 7.375 C1.14175781 8.07367188 1.15851563 8.77234375 1.17578125 9.4921875 C1.19344267 11.32897486 1.10303261 13.16601963 1 15 C0.34 15.66 -0.32 16.32 -1 17 C-2.32 17 -3.64 17 -5 17 C-5 13.37 -5 9.74 -5 6 C-4.67 6 -4.34 6 -4 6 C-4 8.64 -4 11.28 -4 14 C-2.68 14 -1.36 14 0 14 C0 9.38 0 4.76 0 0 Z " fill="#442E93" transform="translate(159,115)"/>
<path d="M0 0 C-1 3 -1 3 -2.75 4.1875 C-5.29960574 5.10819096 -7.30923081 5.14948718 -10 5 C-9.375 2.5625 -9.375 2.5625 -8 0 C-2.94736842 -1.47368421 -2.94736842 -1.47368421 0 0 Z " fill="#E90920" transform="translate(162,132)"/>
<path d="M0 0 C0.99 0 1.98 0 3 0 C3 2.64 3 5.28 3 8 C1.68 8 0.36 8 -1 8 C-1.04241723 5.66705225 -1.04092937 3.33297433 -1 1 C-0.67 0.67 -0.34 0.34 0 0 Z " fill="#F3F3FC" transform="translate(163,199)"/>
<path d="M0 0 C0.99 0 1.98 0 3 0 C3 2.64 3 5.28 3 8 C1.68 8 0.36 8 -1 8 C-1.04241723 5.66705225 -1.04092937 3.33297433 -1 1 C-0.67 0.67 -0.34 0.34 0 0 Z " fill="#E5E3FA" transform="translate(96,199)"/>
<path d="M0 0 C0.66 0.33 1.32 0.66 2 1 C1.27683594 1.75216797 1.27683594 1.75216797 0.5390625 2.51953125 C-1.51316628 5.82705733 -1.52419703 8.90378847 -1.625 12.6875 C-1.8946793 19.8946793 -1.8946793 19.8946793 -3 21 C-4.66617115 21.04063832 -6.33388095 21.042721 -8 21 C-7.35160156 20.83371094 -6.70320313 20.66742188 -6.03515625 20.49609375 C-5.36355469 20.00238281 -4.69195312 19.50867188 -4 19 C-3.61370126 16.24799578 -3.43992265 13.81705379 -3.4375 11.0625 C-3.39077269 3.51270176 -3.39077269 3.51270176 -1.47265625 0.99609375 C-0.98667969 0.66738281 -0.50070313 0.33867187 0 0 Z " fill="#FECACF" transform="translate(71,129)"/>
<path d="M0 0 C0.99 0 1.98 0 3 0 C3.33 3.3 3.66 6.6 4 10 C2.35 10 0.7 10 -1 10 C-0.67 6.7 -0.34 3.4 0 0 Z " fill="#474497" transform="translate(105,198)"/>
<path d="M0 0 C0.99 0 1.98 0 3 0 C3.22786458 2.01822917 3.45572917 4.03645833 3.68359375 6.0546875 C3.91292961 8.07404316 3.91292961 8.07404316 5 10 C3.35 9.67 1.7 9.34 0 9 C0 6.03 0 3.06 0 0 Z " fill="#413E93" transform="translate(261,198)"/>
<path d="M0 0 C0.99 0 1.98 0 3 0 C3.84888195 5.37625234 4.0024305 9.65370398 3 15 C2.34 15 1.68 15 1 15 C0.67 10.05 0.34 5.1 0 0 Z " fill="#272385" transform="translate(76,192)"/>
<path d="M0 0 C0.99 0.33 1.98 0.66 3 1 C3 3.31 3 5.62 3 8 C1.68 8 0.36 8 -1 8 C-1.04241723 5.66705225 -1.04092937 3.33297433 -1 1 C-0.67 0.67 -0.34 0.34 0 0 Z " fill="#F2F1FC" transform="translate(249,198)"/>
<path d="M0 0 C1.4540625 0.0309375 1.4540625 0.0309375 2.9375 0.0625 C1.9475 2.3725 0.9575 4.6825 -0.0625 7.0625 C-1.0525 6.7325 -2.0425 6.4025 -3.0625 6.0625 C-3.44468767 4.40635343 -3.77645102 2.73792976 -4.0625 1.0625 C-3.0625 0.0625 -3.0625 0.0625 0 0 Z " fill="#B7B5D1" transform="translate(57.0625,196.9375)"/>
<path d="M0 0 C1.32 0 2.64 0 4 0 C4 1.65 4 3.3 4 5 C2.35 5.33 0.7 5.66 -1 6 C-1.625 4.125 -1.625 4.125 -2 2 C-1.34 1.34 -0.68 0.68 0 0 Z " fill="#7D7AB3" transform="translate(146,202)"/>
<path d="M0 0 C0.99 0 1.98 0 3 0 C3 2.64 3 5.28 3 8 C1.68 7.67 0.36 7.34 -1 7 C-1.04254356 5.00045254 -1.04080783 2.99958364 -1 1 C-0.67 0.67 -0.34 0.34 0 0 Z " fill="#E8E6FB" transform="translate(280,199)"/>
<path d="M0 0 C2.31 0 4.62 0 7 0 C6.01 2.31 5.02 4.62 4 7 C3.01 6.67 2.02 6.34 1 6 C1.33 4.35 1.66 2.7 2 1 C1.34 0.67 0.68 0.34 0 0 Z " fill="#3B388E" transform="translate(221,200)"/>
<path d="M0 0 C1.41493551 -0.10884119 2.83232943 -0.18597617 4.25 -0.25 C5.03890625 -0.29640625 5.8278125 -0.3428125 6.640625 -0.390625 C9 0 9 0 13 4 C8.38 3.34 3.76 2.68 -1 2 C-0.67 1.34 -0.34 0.68 0 0 Z " fill="#D71826" transform="translate(30,123)"/>
<path d="M0 0 C0.33 0 0.66 0 1 0 C1.33 2.64 1.66 5.28 2 8 C4.97 8.495 4.97 8.495 8 9 C8 9.33 8 9.66 8 10 C5.3125 10.3125 5.3125 10.3125 2 10 C-0.875 7.5 -0.875 7.5 -3 5 C-2.34 5 -1.68 5 -1 5 C-0.67 3.35 -0.34 1.7 0 0 Z " fill="#484591" transform="translate(214,198)"/>
<path d="M0 0 C0.33 0 0.66 0 1 0 C1.33 2.97 1.66 5.94 2 9 C0.68 8.67 -0.64 8.34 -2 8 C-2.125 5.125 -2.125 5.125 -2 2 C-1.34 1.34 -0.68 0.68 0 0 Z " fill="#322E8B" transform="translate(247,198)"/>
<path d="M0 0 C0.66 0 1.32 0 2 0 C2.33 3.3 2.66 6.6 3 10 C1.35 9.67 -0.3 9.34 -2 9 C-1.34 6.03 -0.68 3.06 0 0 Z " fill="#383491" transform="translate(268,198)"/>
<path d="M0 0 C1.32 0.33 2.64 0.66 4 1 C4 2.32 4 3.64 4 5 C2.68 5.33 1.36 5.66 0 6 C0 4.02 0 2.04 0 0 Z " fill="#E3E2FA" transform="translate(20,193)"/>
<path d="M0 0 C0 1.98 0 3.96 0 6 C-0.99 6.33 -1.98 6.66 -3 7 C-3 5.68 -3 4.36 -3 3 C-4.32 2.67 -5.64 2.34 -7 2 C-2.25 0 -2.25 0 0 0 Z " fill="#C41E42" transform="translate(170,126)"/>
<path d="M0 0 C1.32 0 2.64 0 4 0 C4.33 0.99 4.66 1.98 5 3 C5.66 3.66 6.32 4.32 7 5 C5.02 5 3.04 5 1 5 C0.67 3.35 0.34 1.7 0 0 Z " fill="#4B489D" transform="translate(24,203)"/>
<path d="M0 0 C0.33 0 0.66 0 1 0 C1.66 2.64 2.32 5.28 3 8 C0.69 8 -1.62 8 -4 8 C-3.01 7.67 -2.02 7.34 -1 7 C-0.67 4.69 -0.34 2.38 0 0 Z " fill="#43409A" transform="translate(19,200)"/>
<path d="M0 0 C4 1 4 1 5.25 3.0625 C5.4975 3.701875 5.745 4.34125 6 5 C5.34 4.67 4.68 4.34 4 4 C3.67 5.65 3.34 7.3 3 9 C2.67 9 2.34 9 2 9 C1.34 6.03 0.68 3.06 0 0 Z " fill="#454295" transform="translate(133,193)"/>
<path d="M0 0 C0.99 0.33 1.98 0.66 3 1 C3 1.66 3 2.32 3 3 C3.66 3.66 4.32 4.32 5 5 C3.02 5 1.04 5 -1 5 C-0.67 3.35 -0.34 1.7 0 0 Z " fill="#CDCBEC" transform="translate(192,198)"/>
<path d="M0 0 C1.0725 0.103125 2.145 0.20625 3.25 0.3125 C3.25 0.6425 3.25 0.9725 3.25 1.3125 C2.0434375 1.498125 2.0434375 1.498125 0.8125 1.6875 C-0.033125 1.89375 -0.87875 2.1 -1.75 2.3125 C-2.08 2.9725 -2.41 3.6325 -2.75 4.3125 C-5.3125 4.9375 -5.3125 4.9375 -7.75 5.3125 C-5.36605526 1.49818842 -4.61542062 0.38461838 0 0 Z " fill="#46438C" transform="translate(218.75,191.6875)"/>
<path d="M0 0 C1.670625 0.061875 1.670625 0.061875 3.375 0.125 C3.705 1.115 4.035 2.105 4.375 3.125 C1.075 2.795 -2.225 2.465 -5.625 2.125 C-3.625 0.125 -3.625 0.125 0 0 Z " fill="#DE303C" transform="translate(193.625,122.875)"/>
<path d="M0 0 C0 0.66 0 1.32 0 2 C-0.66 2 -1.32 2 -2 2 C-2 2.99 -2 3.98 -2 5 C-1.34 5.33 -0.68 5.66 0 6 C-1.32 6.33 -2.64 6.66 -4 7 C-4 5.02 -4 3.04 -4 1 C-2 0 -2 0 0 0 Z " fill="#BC244D" transform="translate(179,122)"/>
<path d="M0 0 C0.66 0.99 1.32 1.98 2 3 C1.01 4.32 0.02 5.64 -1 7 C-2.32 6.67 -3.64 6.34 -5 6 C-5 5.34 -5 4.68 -5 4 C-3.68 4 -2.36 4 -1 4 C-0.67 2.68 -0.34 1.36 0 0 Z " fill="#67659A" transform="translate(53,207)"/>
<path d="M0 0 C1.8871875 0.061875 1.8871875 0.061875 3.8125 0.125 C3.8125 0.455 3.8125 0.785 3.8125 1.125 C-3.61607143 3.55357143 -3.61607143 3.55357143 -7.1875 2.125 C-4.09861478 0.06574319 -3.47814073 -0.1140374 0 0 Z " fill="#F6B2B7" transform="translate(267.1875,123.875)"/>
<path d="M0 0 C0 0.66 0 1.32 0 2 C-2.31 2.66 -4.62 3.32 -7 4 C-7 3.01 -7 2.02 -7 1 C-4.53721199 -0.231394 -2.7204945 -0.07159196 0 0 Z " fill="#F40415" transform="translate(184,123)"/>
<path d="M0 0 C1.32 0 2.64 0 4 0 C4 0.99 4 1.98 4 3 C2.68 3 1.36 3 0 3 C-0.33 3.99 -0.66 4.98 -1 6 C-1.042721 4.33388095 -1.04063832 2.66617115 -1 1 C-0.67 0.67 -0.34 0.34 0 0 Z " fill="#35319D" transform="translate(155,84)"/>
</svg>
